<?xml version="1.0" encoding="UTF-8"?>
<!DOCTYPE svg PUBLIC "-//W3C//DTD SVG 1.1//EN" "http://www.w3.org/Graphics/SVG/1.1/DTD/svg11.dtd">
<svg xmlns="http://www.w3.org/2000/svg" version="1.1" width="603px" height="603px" style="shape-rendering:geometricPrecision; text-rendering:geometricPrecision; image-rendering:optimizeQuality; fill-rule:evenodd; clip-rule:evenodd" xmlns:xlink="http://www.w3.org/1999/xlink">
<g><path style="opacity:0.606" fill="#9e9b81" d="M 199.5,139.5 C 198.833,139.5 198.5,139.167 198.5,138.5C 198.5,135.167 198.5,131.833 198.5,128.5C 198.666,124.154 198.499,119.821 198,115.5C 195.379,112.86 192.879,112.86 190.5,115.5C 190.167,115.5 189.833,115.5 189.5,115.5C 191.684,111.062 194.851,110.395 199,113.5C 199.5,122.16 199.666,130.827 199.5,139.5 Z"/></g>
<g><path style="opacity:1" fill="#fcd127" d="M 198.5,128.5 C 197.662,128.158 197.328,127.492 197.5,126.5C 197.663,124.143 197.497,121.81 197,119.5C 194.959,120.423 192.792,120.756 190.5,120.5C 190.5,118.833 190.5,117.167 190.5,115.5C 192.879,112.86 195.379,112.86 198,115.5C 198.499,119.821 198.666,124.154 198.5,128.5 Z"/></g>
<g><path style="opacity:0.286" fill="#424138" d="M 155.5,119.5 C 153.193,120.763 151.859,122.763 151.5,125.5C 150.379,123.911 150.546,122.244 152,120.5C 153.011,119.663 154.178,119.33 155.5,119.5 Z"/></g>
<g><path style="opacity:0.725" fill="#6d6a58" d="M 236.5,122.5 C 233.712,119.925 231.045,119.925 228.5,122.5C 227.833,122.833 227.167,123.167 226.5,123.5C 227.033,120.475 228.867,119.142 232,119.5C 234.626,119.05 236.126,120.05 236.5,122.5 Z"/></g>
<g><path style="opacity:0.882" fill="#858162" d="M 158.5,119.5 C 160.144,119.81 161.144,120.81 161.5,122.5C 159.856,122.19 158.856,121.19 158.5,119.5 Z"/></g>
<g><path style="opacity:1" fill="#fbdb3a" d="M 155.5,119.5 C 156.5,119.5 157.5,119.5 158.5,119.5C 158.856,121.19 159.856,122.19 161.5,122.5C 161.5,122.833 161.5,123.167 161.5,123.5C 161.5,124.5 161.5,125.5 161.5,126.5C 159.473,126.338 157.473,126.505 155.5,127C 154.944,127.383 154.611,127.883 154.5,128.5C 154.167,128.5 153.833,128.5 153.5,128.5C 153.068,127.29 152.401,126.29 151.5,125.5C 151.859,122.763 153.193,120.763 155.5,119.5 Z"/></g>
<g><path style="opacity:1" fill="#fdb50e" d="M 197.5,126.5 C 195.106,127.015 192.772,127.681 190.5,128.5C 190.5,125.833 190.5,123.167 190.5,120.5C 192.792,120.756 194.959,120.423 197,119.5C 197.497,121.81 197.663,124.143 197.5,126.5 Z"/></g>
<g><path style="opacity:1" fill="#f3d995" d="M 189.5,115.5 C 189.833,115.5 190.167,115.5 190.5,115.5C 190.5,117.167 190.5,118.833 190.5,120.5C 190.5,123.167 190.5,125.833 190.5,128.5C 190.5,130.167 190.5,131.833 190.5,133.5C 190.5,135.167 190.5,136.833 190.5,138.5C 189.833,134.833 189.167,131.167 188.5,127.5C 188.183,123.298 188.517,119.298 189.5,115.5 Z"/></g>
<g><path style="opacity:1" fill="#efbe27" d="M 236.5,122.5 C 237.833,124.167 237.833,125.833 236.5,127.5C 235.222,127.782 234.222,128.449 233.5,129.5C 231.194,129.007 228.861,128.674 226.5,128.5C 226.704,126.315 227.37,124.315 228.5,122.5C 231.045,119.925 233.712,119.925 236.5,122.5 Z"/></g>
<g><path style="opacity:0.467" fill="#86856b" d="M 151.5,125.5 C 152.401,126.29 153.068,127.29 153.5,128.5C 153.5,129.5 153.5,130.5 153.5,131.5C 152.262,129.786 151.595,127.786 151.5,125.5 Z"/></g>
<g><path style="opacity:1" fill="#fca424" d="M 197.5,126.5 C 197.328,127.492 197.662,128.158 198.5,128.5C 198.5,131.833 198.5,135.167 198.5,138.5C 198.167,138.5 197.833,138.5 197.5,138.5C 197.5,136.5 197.5,134.5 197.5,132.5C 195.05,132.298 192.717,132.631 190.5,133.5C 190.5,131.833 190.5,130.167 190.5,128.5C 192.772,127.681 195.106,127.015 197.5,126.5 Z"/></g>
<g><path style="opacity:1" fill="#c7ae71" d="M 161.5,123.5 C 163.585,125.684 164.585,128.351 164.5,131.5C 162.777,130.395 161.777,128.728 161.5,126.5C 161.5,125.5 161.5,124.5 161.5,123.5 Z"/></g>
<g><path style="opacity:1" fill="#b8a773" d="M 153.5,128.5 C 153.833,128.5 154.167,128.5 154.5,128.5C 155.508,131.844 156.508,135.177 157.5,138.5C 157.167,138.5 156.833,138.5 156.5,138.5C 155.256,136.337 154.256,134.003 153.5,131.5C 153.5,130.5 153.5,129.5 153.5,128.5 Z"/></g>
<g><path style="opacity:1" fill="#fcb41a" d="M 161.5,126.5 C 161.777,128.728 162.777,130.395 164.5,131.5C 164.833,132.833 165.167,134.167 165.5,135.5C 164.5,135.5 163.5,135.5 162.5,135.5C 162.5,136.5 162.5,137.5 162.5,138.5C 161.041,138.433 159.708,138.766 158.5,139.5C 158.5,138.833 158.167,138.5 157.5,138.5C 156.508,135.177 155.508,131.844 154.5,128.5C 154.611,127.883 154.944,127.383 155.5,127C 157.473,126.505 159.473,126.338 161.5,126.5 Z"/></g>
<g><path style="opacity:1" fill="#fcaa21" d="M 226.5,128.5 C 228.861,128.674 231.194,129.007 233.5,129.5C 233.293,132.241 232.293,134.574 230.5,136.5C 227.939,135.233 225.272,135.233 222.5,136.5C 223.65,133.702 224.983,131.035 226.5,128.5 Z"/></g>
<g><path style="opacity:0.843" fill="#a59170" d="M 228.5,122.5 C 227.37,124.315 226.704,126.315 226.5,128.5C 224.983,131.035 223.65,133.702 222.5,136.5C 221.688,138.945 220.688,141.278 219.5,143.5C 218.549,144.919 218.216,146.585 218.5,148.5C 217.378,146.712 217.211,144.712 218,142.5C 220.752,136.058 223.585,129.724 226.5,123.5C 227.167,123.167 227.833,122.833 228.5,122.5 Z"/></g>
<g><path style="opacity:1" fill="#fc892b" d="M 197.5,138.5 C 197.5,140.167 197.5,141.833 197.5,143.5C 195.473,143.662 193.473,143.495 191.5,143C 190.62,141.644 190.286,140.144 190.5,138.5C 190.5,136.833 190.5,135.167 190.5,133.5C 192.717,132.631 195.05,132.298 197.5,132.5C 197.5,134.5 197.5,136.5 197.5,138.5 Z"/></g>
<g><path style="opacity:0.395" fill="#58584b" d="M 121.5,139.5 C 122.097,138.861 122.93,138.528 124,138.5C 125.699,138.387 126.866,139.053 127.5,140.5C 125.565,139.85 123.565,139.517 121.5,139.5 Z"/></g>
<g><path style="opacity:0.702" fill="#9a8870" d="M 156.5,138.5 C 156.833,138.5 157.167,138.5 157.5,138.5C 158.167,138.5 158.5,138.833 158.5,139.5C 158.989,140.995 159.655,142.329 160.5,143.5C 160.328,144.492 160.662,145.158 161.5,145.5C 161.5,146.833 161.5,148.167 161.5,149.5C 159.597,146.021 157.93,142.354 156.5,138.5 Z"/></g>
<g><path style="opacity:0.976" fill="#ad8772" d="M 164.5,131.5 C 166.584,134.053 167.917,137.053 168.5,140.5C 168.5,141.167 168.5,141.833 168.5,142.5C 167.833,141.833 167.167,141.167 166.5,140.5C 166.768,138.901 166.434,137.568 165.5,136.5C 165.5,136.167 165.5,135.833 165.5,135.5C 165.167,134.167 164.833,132.833 164.5,131.5 Z"/></g>
<g><path style="opacity:0.553" fill="#997d69" d="M 236.5,127.5 C 233.683,135.01 230.35,142.343 226.5,149.5C 223.805,151.928 221.139,151.928 218.5,149.5C 223.694,150.523 226.694,148.523 227.5,143.5C 228.312,141.055 229.312,138.722 230.5,136.5C 232.293,134.574 233.293,132.241 233.5,129.5C 234.222,128.449 235.222,127.782 236.5,127.5 Z"/></g>
<g><path style="opacity:0.004" fill="#393934" d="M 127.5,140.5 C 128.833,140.5 129.5,141.167 129.5,142.5C 129.167,142.5 128.833,142.5 128.5,142.5C 128.167,141.833 127.833,141.167 127.5,140.5 Z"/></g>
<g><path style="opacity:1" fill="#fd9626" d="M 165.5,135.5 C 165.5,135.833 165.5,136.167 165.5,136.5C 164.889,139.751 163.222,142.084 160.5,143.5C 159.655,142.329 158.989,140.995 158.5,139.5C 159.708,138.766 161.041,138.433 162.5,138.5C 162.5,137.5 162.5,136.5 162.5,135.5C 163.5,135.5 164.5,135.5 165.5,135.5 Z"/></g>
<g><path style="opacity:1" fill="#fc7c35" d="M 230.5,136.5 C 229.312,138.722 228.312,141.055 227.5,143.5C 224.69,144.025 222.023,144.025 219.5,143.5C 220.688,141.278 221.688,138.945 222.5,136.5C 225.272,135.233 227.939,135.233 230.5,136.5 Z"/></g>
<g><path style="opacity:0.459" fill="#62614f" d="M 120.5,140.5 C 119.017,143.411 119.35,146.078 121.5,148.5C 121.5,148.833 121.5,149.167 121.5,149.5C 119.124,148.488 118.124,146.655 118.5,144C 118.608,142.319 119.275,141.152 120.5,140.5 Z"/></g>
<g><path style="opacity:1" fill="#fc8039" d="M 165.5,136.5 C 166.434,137.568 166.768,138.901 166.5,140.5C 166.838,144.151 165.172,145.817 161.5,145.5C 160.662,145.158 160.328,144.492 160.5,143.5C 163.222,142.084 164.889,139.751 165.5,136.5 Z"/></g>
<g><path style="opacity:1" fill="#a06f5c" d="M 188.5,127.5 C 189.167,131.167 189.833,134.833 190.5,138.5C 190.286,140.144 190.62,141.644 191.5,143C 193.473,143.495 195.473,143.662 197.5,143.5C 197.5,141.833 197.5,140.167 197.5,138.5C 197.833,138.5 198.167,138.5 198.5,138.5C 198.5,139.167 198.833,139.5 199.5,139.5C 199.657,140.873 199.49,142.207 199,143.5C 195.515,146.68 192.349,146.68 189.5,143.5C 188.549,138.23 188.215,132.897 188.5,127.5 Z"/></g>
<g><path style="opacity:1" fill="#fde023" d="M 121.5,139.5 C 123.565,139.517 125.565,139.85 127.5,140.5C 127.833,141.167 128.167,141.833 128.5,142.5C 130.275,145.956 129.442,148.622 126,150.5C 124.951,148.893 123.451,148.227 121.5,148.5C 119.35,146.078 119.017,143.411 120.5,140.5C 120.5,139.833 120.833,139.5 121.5,139.5 Z"/></g>
<g><path style="opacity:1" fill="#fa644b" d="M 219.5,143.5 C 222.023,144.025 224.69,144.025 227.5,143.5C 226.694,148.523 223.694,150.523 218.5,149.5C 218.5,149.167 218.5,148.833 218.5,148.5C 218.216,146.585 218.549,144.919 219.5,143.5 Z"/></g>
<g><path style="opacity:0.447" fill="#9d987a" d="M 131.5,143.5 C 133.262,144.262 134.262,145.596 134.5,147.5C 132.088,147.306 131.088,145.973 131.5,143.5 Z"/></g>
<g><path style="opacity:1" fill="#836260" d="M 168.5,140.5 C 171.978,145.619 170.812,149.286 165,151.5C 163.541,151.192 162.374,150.525 161.5,149.5C 167.5,150.833 169.833,148.5 168.5,142.5C 168.5,141.833 168.5,141.167 168.5,140.5 Z"/></g>
<g><path style="opacity:0.922" fill="#a69b79" d="M 267.5,140.5 C 266.833,140.5 266.167,140.5 265.5,140.5C 263.932,139.527 262.265,139.36 260.5,140C 256.296,144.036 252.296,148.202 248.5,152.5C 246.81,154.519 245.144,156.519 243.5,158.5C 243.167,158.5 242.833,158.5 242.5,158.5C 242.167,158.5 241.833,158.5 241.5,158.5C 247.539,150.294 254.705,143.294 263,137.5C 264.666,138.348 266.166,139.348 267.5,140.5 Z"/></g>
<g><path style="opacity:1" fill="#f46f51" d="M 166.5,140.5 C 167.167,141.167 167.833,141.833 168.5,142.5C 169.833,148.5 167.5,150.833 161.5,149.5C 161.5,148.167 161.5,146.833 161.5,145.5C 165.172,145.817 166.838,144.151 166.5,140.5 Z"/></g>
<g><path style="opacity:1" fill="#dabe62" d="M 265.5,140.5 C 266.167,140.5 266.833,140.5 267.5,140.5C 268.424,144.884 267.091,148.218 263.5,150.5C 265.015,148.571 265.682,145.238 265.5,140.5 Z"/></g>
<g><path style="opacity:1" fill="#f7c12e" d="M 128.5,142.5 C 128.833,142.5 129.167,142.5 129.5,142.5C 130.492,142.328 131.158,142.662 131.5,143.5C 131.088,145.973 132.088,147.306 134.5,147.5C 134.833,147.5 135.167,147.5 135.5,147.5C 135.433,148.959 135.766,150.292 136.5,151.5C 136.727,153.933 135.727,155.599 133.5,156.5C 130.807,155.448 128.14,154.448 125.5,153.5C 125.167,151.167 123.833,149.833 121.5,149.5C 121.5,149.167 121.5,148.833 121.5,148.5C 123.451,148.227 124.951,148.893 126,150.5C 129.442,148.622 130.275,145.956 128.5,142.5 Z"/></g>
<g><path style="opacity:1" fill="#fcb91c" d="M 265.5,140.5 C 265.682,145.238 265.015,148.571 263.5,150.5C 260.865,151.811 258.531,153.478 256.5,155.5C 255.791,154.596 254.791,154.263 253.5,154.5C 252.365,152.787 250.698,152.12 248.5,152.5C 252.296,148.202 256.296,144.036 260.5,140C 262.265,139.36 263.932,139.527 265.5,140.5 Z"/></g>
<g><path style="opacity:0.722" fill="#686755" d="M 121.5,149.5 C 123.833,149.833 125.167,151.167 125.5,153.5C 123.833,152.5 122.5,151.167 121.5,149.5 Z"/></g>
<g><path style="opacity:0.341" fill="#968970" d="M 135.5,147.5 C 138.51,149.521 140.843,152.188 142.5,155.5C 140.246,154.585 138.246,153.252 136.5,151.5C 135.766,150.292 135.433,148.959 135.5,147.5 Z"/></g>
<g><path style="opacity:0.043" fill="#676352" d="M 263.5,150.5 C 261.473,153.194 259.139,155.527 256.5,157.5C 256.5,156.833 256.5,156.167 256.5,155.5C 258.531,153.478 260.865,151.811 263.5,150.5 Z"/></g>
<g><path style="opacity:1" fill="#db914a" d="M 253.5,154.5 C 254.791,154.263 255.791,154.596 256.5,155.5C 256.5,156.167 256.5,156.833 256.5,157.5C 255.833,158.167 255.167,158.833 254.5,159.5C 253.833,159.5 253.167,159.5 252.5,159.5C 252.082,158.778 251.416,158.278 250.5,158C 251.938,157.781 253.271,157.281 254.5,156.5C 254.137,155.817 253.804,155.15 253.5,154.5 Z"/></g>
<g><path style="opacity:1" fill="#c29d61" d="M 125.5,153.5 C 128.14,154.448 130.807,155.448 133.5,156.5C 134.167,158.5 134.833,160.5 135.5,162.5C 134.167,162.5 133.5,161.833 133.5,160.5C 133.027,159.094 132.027,158.427 130.5,158.5C 128.64,157.061 126.973,155.395 125.5,153.5 Z"/></g>
<g><path style="opacity:1" fill="#fb982e" d="M 136.5,151.5 C 138.246,153.252 140.246,154.585 142.5,155.5C 142.5,156.167 142.5,156.833 142.5,157.5C 141.167,159.5 139.5,161.167 137.5,162.5C 136.833,162.5 136.167,162.5 135.5,162.5C 134.833,160.5 134.167,158.5 133.5,156.5C 135.727,155.599 136.727,153.933 136.5,151.5 Z"/></g>
<g><path style="opacity:0.012" fill="#5a4a40" d="M 142.5,155.5 C 144.19,155.856 145.19,156.856 145.5,158.5C 144.609,157.89 143.609,157.557 142.5,157.5C 142.5,156.833 142.5,156.167 142.5,155.5 Z"/></g>
<g><path style="opacity:0.592" fill="#987573" d="M 203.5,156.5 C 193.078,156.11 182.745,156.776 172.5,158.5C 174.877,157.113 177.543,156.279 180.5,156C 188.345,155.178 196.011,155.344 203.5,156.5 Z"/></g>
<g><path style="opacity:1" fill="#fd8031" d="M 248.5,152.5 C 250.698,152.12 252.365,152.787 253.5,154.5C 253.804,155.15 254.137,155.817 254.5,156.5C 253.271,157.281 251.938,157.781 250.5,158C 251.416,158.278 252.082,158.778 252.5,159.5C 250.374,160.048 248.374,160.715 246.5,161.5C 244.5,161.5 243.5,160.5 243.5,158.5C 245.144,156.519 246.81,154.519 248.5,152.5 Z"/></g>
<g><path style="opacity:0.353" fill="#58554a" d="M 130.5,158.5 C 132.027,158.427 133.027,159.094 133.5,160.5C 131.973,160.573 130.973,159.906 130.5,158.5 Z"/></g>
<g><path style="opacity:1" fill="#f96946" d="M 242.5,158.5 C 242.833,158.5 243.167,158.5 243.5,158.5C 243.5,160.5 244.5,161.5 246.5,161.5C 247.5,161.5 248.5,161.5 249.5,161.5C 249.5,162.5 249.5,163.5 249.5,164.5C 247.085,164.627 244.751,164.793 242.5,165C 241.232,162.837 241.232,160.67 242.5,158.5 Z"/></g>
<g><path style="opacity:1" fill="#fb6766" d="M 213.5,160.5 C 216.162,161.499 218.828,162.499 221.5,163.5C 223.027,163.427 224.027,164.094 224.5,165.5C 226.55,167.547 228.883,169.214 231.5,170.5C 231.5,171.167 231.5,171.833 231.5,172.5C 230.735,172.077 229.902,171.743 229,171.5C 227.7,172.707 226.2,173.374 224.5,173.5C 224.5,175.167 224.5,176.833 224.5,178.5C 222.999,177.248 221.332,176.248 219.5,175.5C 216.308,172.405 212.641,170.072 208.5,168.5C 208.345,165.497 208.512,162.497 209,159.5C 210.356,160.38 211.856,160.714 213.5,160.5 Z"/></g>
<g><path style="opacity:0.808" fill="#876160" d="M 209.5,157.5 C 214.098,158.465 218.098,160.465 221.5,163.5C 218.828,162.499 216.162,161.499 213.5,160.5C 211.924,159.857 210.59,158.857 209.5,157.5 Z"/></g>
<g><path style="opacity:1" fill="#a9674a" d="M 252.5,159.5 C 253.167,159.5 253.833,159.5 254.5,159.5C 253.167,161.5 251.5,163.167 249.5,164.5C 249.5,163.5 249.5,162.5 249.5,161.5C 248.5,161.5 247.5,161.5 246.5,161.5C 248.374,160.715 250.374,160.048 252.5,159.5 Z"/></g>
<g><path style="opacity:1" fill="#fb753d" d="M 142.5,157.5 C 143.609,157.557 144.609,157.89 145.5,158.5C 145.5,160.833 145.5,163.167 145.5,165.5C 143.167,165.5 140.833,165.5 138.5,165.5C 138.443,164.391 138.11,163.391 137.5,162.5C 139.5,161.167 141.167,159.5 142.5,157.5 Z"/></g>
<g><path style="opacity:1" fill="#82554d" d="M 145.5,158.5 C 147.745,160.417 148.078,162.75 146.5,165.5C 143.677,168.087 141.01,168.087 138.5,165.5C 140.833,165.5 143.167,165.5 145.5,165.5C 145.5,163.167 145.5,160.833 145.5,158.5 Z"/></g>
<g><path style="opacity:0.941" fill="#a38269" d="M 135.5,162.5 C 136.167,162.5 136.833,162.5 137.5,162.5C 138.11,163.391 138.443,164.391 138.5,165.5C 136.856,165.19 135.856,164.19 135.5,162.5 Z"/></g>
<g><path style="opacity:0.984" fill="#a06764" d="M 172.5,158.5 C 168.653,161.593 164.32,163.926 159.5,165.5C 163.059,161.885 167.393,159.551 172.5,158.5 Z"/></g>
<g><path style="opacity:1" fill="#a36c61" d="M 241.5,158.5 C 241.833,158.5 242.167,158.5 242.5,158.5C 241.232,160.67 241.232,162.837 242.5,165C 244.751,164.793 247.085,164.627 249.5,164.5C 247.427,167.352 244.761,168.018 241.5,166.5C 238.913,163.677 238.913,161.01 241.5,158.5 Z"/></g>
<g><path style="opacity:0.376" fill="#755b5a" d="M 224.5,165.5 C 227.674,166.01 230.008,167.677 231.5,170.5C 228.883,169.214 226.55,167.547 224.5,165.5 Z"/></g>
<g><path style="opacity:0.173" fill="#555141" d="M 286.5,167.5 C 282.997,167.129 279.997,168.129 277.5,170.5C 276.833,170.5 276.167,170.5 275.5,170.5C 277.1,169.356 278.767,168.189 280.5,167C 282.712,166.211 284.712,166.378 286.5,167.5 Z"/></g>
<g><path style="opacity:1" fill="#fbd842" d="M 180.5,166.5 C 178.981,167.41 177.315,168.243 175.5,169C 178.167,169.667 180.833,170.333 183.5,171C 184.056,171.383 184.389,171.883 184.5,172.5C 179.129,171.063 173.795,171.23 168.5,173C 164.639,175.696 161.306,178.863 158.5,182.5C 155.494,183.848 153.161,185.848 151.5,188.5C 157.725,176.606 167.392,169.272 180.5,166.5 Z"/></g>
<g><path style="opacity:1" fill="#fab624" d="M 286.5,167.5 C 287.219,169.764 287.552,172.097 287.5,174.5C 287.672,175.492 287.338,176.158 286.5,176.5C 284.297,176.604 282.297,177.27 280.5,178.5C 279.585,176.246 278.252,174.246 276.5,172.5C 276.833,171.833 277.167,171.167 277.5,170.5C 279.997,168.129 282.997,167.129 286.5,167.5 Z"/></g>
<g><path style="opacity:1" fill="#938866" d="M 286.5,167.5 C 289.866,169.62 290.199,171.953 287.5,174.5C 287.552,172.097 287.219,169.764 286.5,167.5 Z"/></g>
<g><path style="opacity:0.682" fill="#765856" d="M 159.5,165.5 C 156.064,169.057 152.397,172.391 148.5,175.5C 149.203,173.284 150.536,171.451 152.5,170C 154.734,168.25 157.068,166.75 159.5,165.5 Z"/></g>
<g><path style="opacity:1" fill="#fefefa" d="M 184.5,172.5 C 187.851,174.854 190.518,177.854 192.5,181.5C 193.229,186.13 193.563,190.797 193.5,195.5C 192.517,199.469 190.517,202.802 187.5,205.5C 186.508,205.328 185.842,205.662 185.5,206.5C 182.079,208.241 178.412,209.241 174.5,209.5C 170.091,209.21 166.091,207.876 162.5,205.5C 157.522,198.552 156.189,190.886 158.5,182.5C 161.306,178.863 164.639,175.696 168.5,173C 173.795,171.23 179.129,171.063 184.5,172.5 Z"/></g>
<g><path style="opacity:1" fill="#fed21e" d="M 208.5,168.5 C 212.641,170.072 216.308,172.405 219.5,175.5C 219.152,177.713 218.319,179.713 217,181.5C 216.085,180.672 215.419,179.672 215,178.5C 214.105,180.804 213.271,183.138 212.5,185.5C 211.107,186.863 209.441,187.696 207.5,188C 212.594,189.458 212.261,190.291 206.5,190.5C 205.692,197.459 201.692,200.626 194.5,200C 196.044,200.29 197.377,200.956 198.5,202C 196.04,203.458 193.873,205.291 192,207.5C 191.085,206.672 190.419,205.672 190,204.5C 189.329,205.252 188.496,205.586 187.5,205.5C 190.517,202.802 192.517,199.469 193.5,195.5C 194.161,193.866 194.494,192.033 194.5,190C 194.64,186.85 193.973,184.017 192.5,181.5C 190.518,177.854 187.851,174.854 184.5,172.5C 184.389,171.883 184.056,171.383 183.5,171C 180.833,170.333 178.167,169.667 175.5,169C 177.315,168.243 178.981,167.41 180.5,166.5C 189.851,164.934 199.185,165.601 208.5,168.5 Z"/></g>
<g><path style="opacity:0.659" fill="#8b8a6d" d="M 100.5,169.5 C 98.3498,171.922 98.0165,174.589 99.5,177.5C 98.2749,176.848 97.6083,175.681 97.5,174C 97.0503,171.374 98.0503,169.874 100.5,169.5 Z"/></g>
<g><path style="opacity:1" fill="#f5dd31" d="M 105.5,169.5 C 105.5,170.833 106.167,171.5 107.5,171.5C 106.772,173.512 105.938,175.512 105,177.5C 104.329,178.252 103.496,178.586 102.5,178.5C 101.609,177.89 100.609,177.557 99.5,177.5C 98.0165,174.589 98.3498,171.922 100.5,169.5C 102.05,168.28 103.716,168.28 105.5,169.5 Z"/></g>
<g><path style="opacity:0.082" fill="#393831" d="M 271.5,172.5 C 271.167,173.167 270.833,173.833 270.5,174.5C 269.167,174.833 267.833,175.167 266.5,175.5C 267.659,173.75 269.326,172.75 271.5,172.5 Z"/></g>
<g><path style="opacity:1" fill="#dab274" d="M 275.5,170.5 C 276.167,170.5 276.833,170.5 277.5,170.5C 277.167,171.167 276.833,171.833 276.5,172.5C 274.315,172.704 272.315,173.37 270.5,174.5C 270.833,173.833 271.167,173.167 271.5,172.5C 272.605,171.4 273.938,170.733 275.5,170.5 Z"/></g>
<g><path style="opacity:1" fill="#f87269" d="M 203.5,156.5 C 205.735,156.205 207.735,156.539 209.5,157.5C 210.59,158.857 211.924,159.857 213.5,160.5C 211.856,160.714 210.356,160.38 209,159.5C 208.512,162.497 208.345,165.497 208.5,168.5C 199.185,165.601 189.851,164.934 180.5,166.5C 167.392,169.272 157.725,176.606 151.5,188.5C 148.504,191.497 146.837,195.164 146.5,199.5C 146.167,199.5 145.833,199.5 145.5,199.5C 144.883,199.611 144.383,199.944 144,200.5C 143.503,203.146 143.336,205.813 143.5,208.5C 141.856,208.286 140.356,208.62 139,209.5C 138.333,208.833 137.667,208.167 137,207.5C 136.333,212.167 136.333,216.833 137,221.5C 137.318,223.061 138.151,224.228 139.5,225C 138.317,228.274 138.65,231.441 140.5,234.5C 140.5,235.167 140.5,235.833 140.5,236.5C 138.462,232.302 136.795,227.969 135.5,223.5C 134.167,216.833 134.167,210.167 135.5,203.5C 137.296,196.239 140.463,189.573 145,183.5C 145.49,182.207 145.657,180.873 145.5,179.5C 147.446,178.965 148.446,177.632 148.5,175.5C 152.397,172.391 156.064,169.057 159.5,165.5C 164.32,163.926 168.653,161.593 172.5,158.5C 182.745,156.776 193.078,156.11 203.5,156.5 Z"/></g>
<g><path style="opacity:1" fill="#b75f62" d="M 231.5,170.5 C 234.517,171.998 236.517,174.331 237.5,177.5C 235.914,176.852 234.247,176.352 232.5,176C 233.8,174.421 233.466,173.255 231.5,172.5C 231.5,171.833 231.5,171.167 231.5,170.5 Z"/></g>
<g><path style="opacity:1" fill="#fc9320" d="M 276.5,172.5 C 278.252,174.246 279.585,176.246 280.5,178.5C 278.072,180.043 275.406,181.043 272.5,181.5C 269.212,181.984 266.545,180.984 264.5,178.5C 265.167,177.5 265.833,176.5 266.5,175.5C 267.833,175.167 269.167,174.833 270.5,174.5C 272.315,173.37 274.315,172.704 276.5,172.5 Z"/></g>
<g><path style="opacity:0.812" fill="#9c8570" d="M 266.5,175.5 C 265.833,176.5 265.167,177.5 264.5,178.5C 263.5,178.5 262.5,178.5 261.5,178.5C 262.659,176.75 264.326,175.75 266.5,175.5 Z"/></g>
<g><path style="opacity:1" fill="#feca17" d="M 219.5,175.5 C 221.332,176.248 222.999,177.248 224.5,178.5C 225.5,179.833 226.5,181.167 227.5,182.5C 227.557,183.609 227.89,184.609 228.5,185.5C 228.5,186.833 228.5,188.167 228.5,189.5C 224.063,193.125 219.396,196.459 214.5,199.5C 212.528,202.473 210.195,205.139 207.5,207.5C 206.652,209.409 206.318,211.409 206.5,213.5C 204.856,213.286 203.356,213.62 202,214.5C 199.756,217.895 198.256,221.561 197.5,225.5C 195.167,225.5 192.833,225.5 190.5,225.5C 190.657,226.873 190.49,228.207 190,229.5C 188.005,231.161 186.005,232.828 184,234.5C 178.229,237.635 172.396,240.635 166.5,243.5C 164.955,244.452 163.288,244.785 161.5,244.5C 159.5,243.5 157.5,242.5 155.5,241.5C 154.061,239.64 152.395,237.973 150.5,236.5C 150.5,235.833 150.5,235.167 150.5,234.5C 155.961,232.268 161.627,230.935 167.5,230.5C 167.5,229.5 167.5,228.5 167.5,227.5C 169.5,227.5 171.5,227.5 173.5,227.5C 173.5,226.167 173.5,224.833 173.5,223.5C 174.5,223.5 175.5,223.5 176.5,223.5C 177.645,219.759 179.312,216.259 181.5,213C 180.549,212.282 180.383,211.449 181,210.5C 182.667,209.267 184.167,207.933 185.5,206.5C 185.842,205.662 186.508,205.328 187.5,205.5C 188.496,205.586 189.329,205.252 190,204.5C 190.419,205.672 191.085,206.672 192,207.5C 193.873,205.291 196.04,203.458 198.5,202C 197.377,200.956 196.044,200.29 194.5,200C 201.692,200.626 205.692,197.459 206.5,190.5C 212.261,190.291 212.594,189.458 207.5,188C 209.441,187.696 211.107,186.863 212.5,185.5C 213.271,183.138 214.105,180.804 215,178.5C 215.419,179.672 216.085,180.672 217,181.5C 218.319,179.713 219.152,177.713 219.5,175.5 Z"/></g>
<g><path style="opacity:0.416" fill="#8d8b74" d="M 99.5,177.5 C 100.609,177.557 101.609,177.89 102.5,178.5C 102.5,178.833 102.5,179.167 102.5,179.5C 100.973,179.573 99.9731,178.906 99.5,177.5 Z"/></g>
<g><path style="opacity:1" fill="#fdba1b" d="M 107.5,171.5 C 110.54,172.68 113.206,174.347 115.5,176.5C 115.205,178.423 114.372,180.09 113,181.5C 109.6,180.46 106.1,179.794 102.5,179.5C 102.5,179.167 102.5,178.833 102.5,178.5C 103.496,178.586 104.329,178.252 105,177.5C 105.938,175.512 106.772,173.512 107.5,171.5 Z"/></g>
<g><path style="opacity:1" fill="#b77874" d="M 148.5,175.5 C 148.446,177.632 147.446,178.965 145.5,179.5C 145.554,177.368 146.554,176.035 148.5,175.5 Z"/></g>
<g><path style="opacity:1" fill="#f8a22f" d="M 115.5,176.5 C 116.959,176.433 118.292,176.766 119.5,177.5C 119.6,180.108 118.933,182.442 117.5,184.5C 114.129,183.424 110.796,182.424 107.5,181.5C 105.597,181.204 103.93,180.537 102.5,179.5C 106.1,179.794 109.6,180.46 113,181.5C 114.372,180.09 115.205,178.423 115.5,176.5 Z"/></g>
<g><path style="opacity:0.824" fill="#8e7d67" d="M 105.5,169.5 C 113.823,172.995 121.823,176.995 129.5,181.5C 125.994,180.752 122.66,179.419 119.5,177.5C 118.292,176.766 116.959,176.433 115.5,176.5C 113.206,174.347 110.54,172.68 107.5,171.5C 106.167,171.5 105.5,170.833 105.5,169.5 Z"/></g>
<g><path style="opacity:1" fill="#b47465" d="M 261.5,178.5 C 259.981,180.614 257.981,182.28 255.5,183.5C 255.5,183.167 255.5,182.833 255.5,182.5C 256.733,180.204 258.733,178.87 261.5,178.5 Z"/></g>
<g><path style="opacity:0.271" fill="#704b4d" d="M 237.5,177.5 C 239.587,178.585 240.92,180.251 241.5,182.5C 239.413,181.415 238.08,179.749 237.5,177.5 Z"/></g>
<g><path style="opacity:0.902" fill="#9f7e65" d="M 107.5,181.5 C 110.796,182.424 114.129,183.424 117.5,184.5C 121.133,187.733 125.466,189.066 130.5,188.5C 128.545,190.326 126.212,190.826 123.5,190C 117.915,187.378 112.582,184.544 107.5,181.5 Z"/></g>
<g><path style="opacity:1" fill="#fb7440" d="M 119.5,177.5 C 122.66,179.419 125.994,180.752 129.5,181.5C 130.15,183.435 130.483,185.435 130.5,187.5C 130.5,187.833 130.5,188.167 130.5,188.5C 125.466,189.066 121.133,187.733 117.5,184.5C 118.933,182.442 119.6,180.108 119.5,177.5 Z"/></g>
<g><path style="opacity:1" fill="#f06047" d="M 261.5,178.5 C 262.5,178.5 263.5,178.5 264.5,178.5C 266.545,180.984 269.212,181.984 272.5,181.5C 268.656,183.922 264.99,186.589 261.5,189.5C 259.833,190.833 258.167,190.833 256.5,189.5C 254.849,187.598 254.516,185.598 255.5,183.5C 257.981,182.28 259.981,180.614 261.5,178.5 Z"/></g>
<g><path style="opacity:0.251" fill="#685051" d="M 129.5,181.5 C 130.947,182.134 131.613,183.301 131.5,185C 131.472,186.07 131.139,186.903 130.5,187.5C 130.483,185.435 130.15,183.435 129.5,181.5 Z"/></g>
<g><path style="opacity:0.4" fill="#856d60" d="M 286.5,176.5 C 278.549,181.386 270.216,185.72 261.5,189.5C 264.99,186.589 268.656,183.922 272.5,181.5C 275.406,181.043 278.072,180.043 280.5,178.5C 282.297,177.27 284.297,176.604 286.5,176.5 Z"/></g>
<g><path style="opacity:1" fill="#f9535b" d="M 231.5,172.5 C 233.466,173.255 233.8,174.421 232.5,176C 234.247,176.352 235.914,176.852 237.5,177.5C 238.08,179.749 239.413,181.415 241.5,182.5C 241.5,183.167 241.5,183.833 241.5,184.5C 241.238,185.978 241.571,187.311 242.5,188.5C 243.819,190.786 245.485,192.786 247.5,194.5C 248.11,195.391 248.443,196.391 248.5,197.5C 248.753,201.04 249.419,204.373 250.5,207.5C 251.715,211.301 251.715,214.967 250.5,218.5C 247.167,218.5 243.833,218.5 240.5,218.5C 240.276,208.344 238.109,198.677 234,189.5C 232.281,186.712 230.115,184.379 227.5,182.5C 226.5,181.167 225.5,179.833 224.5,178.5C 224.5,176.833 224.5,175.167 224.5,173.5C 226.2,173.374 227.7,172.707 229,171.5C 229.902,171.743 230.735,172.077 231.5,172.5 Z"/></g>
<g><path style="opacity:0.765" fill="#795b5b" d="M 241.5,182.5 C 243.25,183.659 244.25,185.326 244.5,187.5C 243.272,186.694 242.272,185.694 241.5,184.5C 241.5,183.833 241.5,183.167 241.5,182.5 Z"/></g>
<g><path style="opacity:1" fill="#a06966" d="M 145.5,179.5 C 145.657,180.873 145.49,182.207 145,183.5C 140.463,189.573 137.296,196.239 135.5,203.5C 135.964,194.539 139.297,186.539 145.5,179.5 Z"/></g>
<g><path style="opacity:1" fill="#cf5e64" d="M 241.5,184.5 C 242.272,185.694 243.272,186.694 244.5,187.5C 246.075,189.547 247.075,191.881 247.5,194.5C 245.485,192.786 243.819,190.786 242.5,188.5C 241.571,187.311 241.238,185.978 241.5,184.5 Z"/></g>
<g><path style="opacity:0.278" fill="#513f3c" d="M 255.5,182.5 C 255.5,182.833 255.5,183.167 255.5,183.5C 254.516,185.598 254.849,187.598 256.5,189.5C 254.561,188.986 253.561,187.653 253.5,185.5C 253.453,183.962 254.12,182.962 255.5,182.5 Z"/></g>
<g><path style="opacity:1" fill="#fefbc8" d="M 192.5,181.5 C 193.973,184.017 194.64,186.85 194.5,190C 194.494,192.033 194.161,193.866 193.5,195.5C 193.563,190.797 193.229,186.13 192.5,181.5 Z"/></g>
<g><path style="opacity:1" fill="#fec413" d="M 228.5,189.5 C 229.878,193.792 230.211,198.125 229.5,202.5C 228.749,201.624 228.249,200.624 228,199.5C 225.047,200.943 223.547,203.277 223.5,206.5C 221.409,206.318 219.409,206.652 217.5,207.5C 215.569,212.085 213.235,216.419 210.5,220.5C 209.548,222.045 209.215,223.712 209.5,225.5C 206.5,225.833 204.833,227.5 204.5,230.5C 202.857,230.48 201.524,231.147 200.5,232.5C 199.679,235.447 199.179,238.447 199,241.5C 196.891,242.035 196.391,243.035 197.5,244.5C 196.757,245.182 196.091,245.849 195.5,246.5C 194.711,246.783 194.044,247.283 193.5,248C 185.833,248.667 178.167,248.667 170.5,248C 167.21,247.275 164.21,246.108 161.5,244.5C 163.288,244.785 164.955,244.452 166.5,243.5C 172.396,240.635 178.229,237.635 184,234.5C 186.005,232.828 188.005,231.161 190,229.5C 190.49,228.207 190.657,226.873 190.5,225.5C 192.833,225.5 195.167,225.5 197.5,225.5C 198.256,221.561 199.756,217.895 202,214.5C 203.356,213.62 204.856,213.286 206.5,213.5C 206.318,211.409 206.652,209.409 207.5,207.5C 210.195,205.139 212.528,202.473 214.5,199.5C 219.396,196.459 224.063,193.125 228.5,189.5 Z"/></g>
<g><path style="opacity:1" fill="#febd10" d="M 228.5,185.5 C 229.651,187.779 230.651,190.112 231.5,192.5C 231.774,211.604 224.774,227.271 210.5,239.5C 205.988,242.786 200.988,245.12 195.5,246.5C 196.091,245.849 196.757,245.182 197.5,244.5C 196.391,243.035 196.891,242.035 199,241.5C 199.179,238.447 199.679,235.447 200.5,232.5C 201.524,231.147 202.857,230.48 204.5,230.5C 204.833,227.5 206.5,225.833 209.5,225.5C 209.215,223.712 209.548,222.045 210.5,220.5C 213.235,216.419 215.569,212.085 217.5,207.5C 219.409,206.652 221.409,206.318 223.5,206.5C 223.547,203.277 225.047,200.943 228,199.5C 228.249,200.624 228.749,201.624 229.5,202.5C 230.211,198.125 229.878,193.792 228.5,189.5C 228.5,188.167 228.5,186.833 228.5,185.5 Z"/></g>
<g><path style="opacity:0.718" fill="#805d60" d="M 248.5,197.5 C 250.175,200.507 250.841,203.84 250.5,207.5C 249.419,204.373 248.753,201.04 248.5,197.5 Z"/></g>
<g><path style="opacity:1" fill="#fedf24" d="M 158.5,182.5 C 156.189,190.886 157.522,198.552 162.5,205.5C 161.206,207.328 160.206,209.328 159.5,211.5C 157.833,211.5 156.167,211.5 154.5,211.5C 154.762,212.978 154.429,214.311 153.5,215.5C 151.189,216.214 149.022,217.214 147,218.5C 146.667,218.167 146.333,217.833 146,217.5C 145.359,211.472 145.526,205.472 146.5,199.5C 146.837,195.164 148.504,191.497 151.5,188.5C 153.161,185.848 155.494,183.848 158.5,182.5 Z"/></g>
<g><path style="opacity:0.608" fill="#8a8170" d="M 121.5,207.5 C 114.5,207.5 107.5,207.5 100.5,207.5C 96.7307,207.244 93.0641,207.577 89.5,208.5C 90.4642,206.595 92.1309,205.595 94.5,205.5C 103.649,206.114 112.649,206.781 121.5,207.5 Z"/></g>
<g><path style="opacity:0.808" fill="#b8a19a" d="M 292.5,206.5 C 289.098,206.342 285.764,206.676 282.5,207.5C 279.237,206.918 276.57,206.252 274.5,205.5C 279.201,205.648 283.868,205.315 288.5,204.5C 290.355,204.34 291.688,205.007 292.5,206.5 Z"/></g>
<g><path style="opacity:1" fill="#de8a70" d="M 100.5,207.5 C 107.5,207.5 114.5,207.5 121.5,207.5C 122.496,207.414 123.329,207.748 124,208.5C 124.789,210.712 124.622,212.712 123.5,214.5C 123.785,212.712 123.452,211.045 122.5,209.5C 119.579,208.593 116.579,208.26 113.5,208.5C 111.5,208.5 109.5,208.5 107.5,208.5C 105.833,208.5 104.167,208.5 102.5,208.5C 101.508,208.672 100.842,208.338 100.5,207.5 Z"/></g>
<g><path style="opacity:1" fill="#eb5d66" d="M 292.5,206.5 C 293.167,206.5 293.833,206.5 294.5,206.5C 294.5,206.833 294.5,207.167 294.5,207.5C 287.009,208.603 279.676,208.603 272.5,207.5C 275.833,207.5 279.167,207.5 282.5,207.5C 285.764,206.676 289.098,206.342 292.5,206.5 Z"/></g>
<g><path style="opacity:1" fill="#fac12c" d="M 100.5,207.5 C 100.842,208.338 101.508,208.672 102.5,208.5C 101.985,210.894 101.319,213.228 100.5,215.5C 96.8333,215.5 93.1667,215.5 89.5,215.5C 89.5,215.167 89.5,214.833 89.5,214.5C 89.5,212.833 89.5,211.167 89.5,209.5C 89.5,209.167 89.5,208.833 89.5,208.5C 93.0641,207.577 96.7307,207.244 100.5,207.5 Z"/></g>
<g><path style="opacity:1" fill="#f95a48" d="M 113.5,208.5 C 116.579,208.26 119.579,208.593 122.5,209.5C 123.452,211.045 123.785,212.712 123.5,214.5C 118.93,215.441 114.263,215.774 109.5,215.5C 111.572,213.65 112.905,211.317 113.5,208.5 Z"/></g>
<g><path style="opacity:1" fill="#f94c4f" d="M 272.5,207.5 C 279.676,208.603 287.009,208.603 294.5,207.5C 295.738,209.214 296.405,211.214 296.5,213.5C 296.5,213.833 296.5,214.167 296.5,214.5C 295.167,214.833 293.833,215.167 292.5,215.5C 283.161,215.666 273.827,215.5 264.5,215C 261.833,212.667 261.833,210.333 264.5,208C 267.146,207.503 269.813,207.336 272.5,207.5 Z"/></g>
<g><path style="opacity:0.649" fill="#898876" d="M 89.5,209.5 C 89.5,211.167 89.5,212.833 89.5,214.5C 87.0776,212.714 87.0776,211.048 89.5,209.5 Z"/></g>
<g><path style="opacity:1" fill="#fed11f" d="M 145.5,199.5 C 145.833,199.5 146.167,199.5 146.5,199.5C 145.526,205.472 145.359,211.472 146,217.5C 146.333,217.833 146.667,218.167 147,218.5C 149.022,217.214 151.189,216.214 153.5,215.5C 154.429,214.311 154.762,212.978 154.5,211.5C 156.167,211.5 157.833,211.5 159.5,211.5C 160.206,209.328 161.206,207.328 162.5,205.5C 166.091,207.876 170.091,209.21 174.5,209.5C 178.412,209.241 182.079,208.241 185.5,206.5C 184.167,207.933 182.667,209.267 181,210.5C 180.383,211.449 180.549,212.282 181.5,213C 179.312,216.259 177.645,219.759 176.5,223.5C 175.5,223.5 174.5,223.5 173.5,223.5C 173.5,224.833 173.5,226.167 173.5,227.5C 171.5,227.5 169.5,227.5 167.5,227.5C 167.5,228.5 167.5,229.5 167.5,230.5C 161.627,230.935 155.961,232.268 150.5,234.5C 149.069,233.097 147.902,231.431 147,229.5C 144.523,219.565 144.023,209.565 145.5,199.5 Z"/></g>
<g><path style="opacity:0.376" fill="#654042" d="M 294.5,207.5 C 294.5,207.167 294.5,206.833 294.5,206.5C 295.931,206.881 296.764,207.881 297,209.5C 297.765,211.066 297.598,212.399 296.5,213.5C 296.405,211.214 295.738,209.214 294.5,207.5 Z"/></g>
<g><path style="opacity:1" fill="#fc921d" d="M 102.5,208.5 C 104.167,208.5 105.833,208.5 107.5,208.5C 107.245,211.229 106.245,213.562 104.5,215.5C 103.167,215.5 101.833,215.5 100.5,215.5C 101.319,213.228 101.985,210.894 102.5,208.5 Z"/></g>
<g><path style="opacity:1" fill="#fc7339" d="M 107.5,208.5 C 109.5,208.5 111.5,208.5 113.5,208.5C 112.905,211.317 111.572,213.65 109.5,215.5C 107.833,215.5 106.167,215.5 104.5,215.5C 106.245,213.562 107.245,211.229 107.5,208.5 Z"/></g>
<g><path style="opacity:1" fill="#fd6e28" d="M 227.5,182.5 C 230.115,184.379 232.281,186.712 234,189.5C 238.109,198.677 240.276,208.344 240.5,218.5C 239.027,220.395 237.36,222.061 235.5,223.5C 234.026,224.436 233.026,225.77 232.5,227.5C 225.665,232.146 224.999,237.479 230.5,243.5C 229.325,243.281 228.325,243.614 227.5,244.5C 226.828,246.16 225.828,247.493 224.5,248.5C 218.73,253.54 212.064,256.873 204.5,258.5C 206.052,255.888 208.386,254.555 211.5,254.5C 211.336,251.813 211.503,249.146 212,246.5C 214.947,245.219 217.281,243.219 219,240.5C 219.595,239.101 219.428,237.768 218.5,236.5C 221.187,235.902 223.354,234.569 225,232.5C 224.375,229.33 224.542,226.163 225.5,223C 227.768,219.731 229.601,216.231 231,212.5C 233,211.833 234.333,210.5 235,208.5C 237.775,202.094 236.608,196.761 231.5,192.5C 230.651,190.112 229.651,187.779 228.5,185.5C 227.89,184.609 227.557,183.609 227.5,182.5 Z"/></g>
<g><path style="opacity:0.969" fill="#ab7271" d="M 274.5,205.5 C 276.57,206.252 279.237,206.918 282.5,207.5C 279.167,207.5 275.833,207.5 272.5,207.5C 269.813,207.336 267.146,207.503 264.5,208C 261.833,210.333 261.833,212.667 264.5,215C 273.827,215.5 283.161,215.666 292.5,215.5C 292.5,215.833 292.5,216.167 292.5,216.5C 282.478,216.832 272.478,216.499 262.5,215.5C 260.006,212.92 260.006,210.253 262.5,207.5C 266.366,206.998 270.033,205.998 273.5,204.5C 274.107,204.624 274.44,204.957 274.5,205.5 Z"/></g>
<g><path style="opacity:1" fill="#b29a7f" d="M 123.5,214.5 C 123.423,215.75 122.756,216.583 121.5,217C 111.5,217.667 101.5,217.667 91.5,217C 90.5842,216.722 89.9175,216.222 89.5,215.5C 93.1667,215.5 96.8333,215.5 100.5,215.5C 101.833,215.5 103.167,215.5 104.5,215.5C 106.167,215.5 107.833,215.5 109.5,215.5C 114.263,215.774 118.93,215.441 123.5,214.5 Z"/></g>
<g><path style="opacity:0.114" fill="#251d1d" d="M 296.5,214.5 C 295.713,216.104 294.38,216.771 292.5,216.5C 292.5,216.167 292.5,215.833 292.5,215.5C 293.833,215.167 295.167,214.833 296.5,214.5 Z"/></g>
<g><path style="opacity:1" fill="#fc675e" d="M 145.5,199.5 C 144.023,209.565 144.523,219.565 147,229.5C 147.902,231.431 149.069,233.097 150.5,234.5C 150.5,235.167 150.5,235.833 150.5,236.5C 148.827,235.657 147.66,234.324 147,232.5C 144.708,232.075 142.541,232.742 140.5,234.5C 138.65,231.441 138.317,228.274 139.5,225C 138.151,224.228 137.318,223.061 137,221.5C 136.333,216.833 136.333,212.167 137,207.5C 137.667,208.167 138.333,208.833 139,209.5C 140.356,208.62 141.856,208.286 143.5,208.5C 143.336,205.813 143.503,203.146 144,200.5C 144.383,199.944 144.883,199.611 145.5,199.5 Z"/></g>
<g><path style="opacity:0.231" fill="#7f665d" d="M 240.5,218.5 C 243.833,218.5 247.167,218.5 250.5,218.5C 245.701,218.815 241.368,220.482 237.5,223.5C 236.833,223.5 236.167,223.5 235.5,223.5C 237.36,222.061 239.027,220.395 240.5,218.5 Z"/></g>
<g><path style="opacity:1" fill="#eeebb7" d="M 235.5,223.5 C 236.167,223.5 236.833,223.5 237.5,223.5C 237.833,224.167 238.167,224.833 238.5,225.5C 239.841,227.834 239.174,229.501 236.5,230.5C 235.965,228.554 234.632,227.554 232.5,227.5C 233.026,225.77 234.026,224.436 235.5,223.5 Z"/></g>
<g><path style="opacity:1" fill="#15f260" d="M 338.5,230.5 C 337.432,231.434 336.099,231.768 334.5,231.5C 326.334,228.535 318.334,229.035 310.5,233C 308.627,234.704 306.96,236.537 305.5,238.5C 303.167,238.5 300.833,238.5 298.5,238.5C 298.264,235.774 299.097,233.441 301,231.5C 304.068,228.917 307.235,226.584 310.5,224.5C 315.129,223.519 319.796,223.352 324.5,224C 329.313,225.907 333.98,228.074 338.5,230.5 Z"/></g>
<g><path style="opacity:0.486" fill="#7c5c5c" d="M 135.5,223.5 C 136.795,227.969 138.462,232.302 140.5,236.5C 140.5,237.5 140.5,238.5 140.5,239.5C 137.251,234.748 135.584,229.415 135.5,223.5 Z"/></g>
<g><path style="opacity:0.467" fill="#769b85" d="M 338.5,230.5 C 339.492,230.328 340.158,230.662 340.5,231.5C 336.404,233.023 332.071,234.023 327.5,234.5C 329.588,232.98 331.922,231.98 334.5,231.5C 336.099,231.768 337.432,231.434 338.5,230.5 Z"/></g>
<g><path style="opacity:1" fill="#fbe053" d="M 232.5,227.5 C 234.632,227.554 235.965,228.554 236.5,230.5C 234.583,232.262 233.25,234.429 232.5,237C 232.645,237.772 232.978,238.439 233.5,239C 235.811,239.236 237.811,240.069 239.5,241.5C 239.5,242.167 239.5,242.833 239.5,243.5C 236.5,244.833 233.5,244.833 230.5,243.5C 224.999,237.479 225.665,232.146 232.5,227.5 Z"/></g>
<g><path style="opacity:1" fill="#21ba57" d="M 334.5,231.5 C 331.922,231.98 329.588,232.98 327.5,234.5C 326.833,234.5 326.167,234.5 325.5,234.5C 321.777,235.511 321.777,236.845 325.5,238.5C 325.833,239.833 326.167,241.167 326.5,242.5C 326.799,244.604 326.466,246.604 325.5,248.5C 323.388,246.794 321.055,245.461 318.5,244.5C 316.73,243.18 316.397,241.68 317.5,240C 315.82,240.771 314.153,240.605 312.5,239.5C 310.236,238.781 307.903,238.448 305.5,238.5C 306.96,236.537 308.627,234.704 310.5,233C 318.334,229.035 326.334,228.535 334.5,231.5 Z"/></g>
<g><path style="opacity:0.004" fill="#202422" d="M 325.5,234.5 C 325.5,235.833 325.5,237.167 325.5,238.5C 321.777,236.845 321.777,235.511 325.5,234.5 Z"/></g>
<g><path style="opacity:1" fill="#0b283d" d="M 340.5,231.5 C 340.158,230.662 339.492,230.328 338.5,230.5C 333.98,228.074 329.313,225.907 324.5,224C 319.796,223.352 315.129,223.519 310.5,224.5C 307.632,224.085 305.465,225.085 304,227.5C 303.692,226.692 303.192,226.025 302.5,225.5C 301.024,227.571 299.024,228.571 296.5,228.5C 296.826,232.408 296.993,236.408 297,240.5C 297.9,241.77 299.066,242.77 300.5,243.5C 298.655,245.536 298.155,247.87 299,250.5C 299.671,251.252 300.504,251.586 301.5,251.5C 301.586,252.496 301.252,253.329 300.5,254C 302.473,254.495 304.473,254.662 306.5,254.5C 306.923,256.781 306.256,258.448 304.5,259.5C 300.108,258.641 296.775,256.307 294.5,252.5C 282.345,251.505 270.011,251.171 257.5,251.5C 257.205,253.735 257.539,255.735 258.5,257.5C 258.981,261.202 259.648,264.869 260.5,268.5C 274.818,269.499 289.151,269.833 303.5,269.5C 302.391,270.29 301.058,270.79 299.5,271C 301.768,273.032 301.102,274.365 297.5,275C 286.326,275.17 275.326,275.67 264.5,276.5C 263.167,276.5 261.833,276.5 260.5,276.5C 262.555,290.11 264.221,303.777 265.5,317.5C 277.167,317.5 288.833,317.5 300.5,317.5C 301.833,317.5 303.167,317.5 304.5,317.5C 304.34,315.801 304.506,314.134 305,312.5C 305.317,314.301 305.984,314.634 307,313.5C 307.5,315.5 308,317.5 308.5,319.5C 308.747,320.713 309.414,321.38 310.5,321.5C 310.167,322.167 309.833,322.833 309.5,323.5C 308.466,324.687 307.133,325.52 305.5,326C 289.837,326.5 274.17,326.667 258.5,326.5C 258.167,322.5 257.833,322.5 257.5,326.5C 253.808,297.624 249.975,268.624 246,239.5C 245.71,237.956 245.044,236.623 244,235.5C 241.52,236.807 240.02,238.807 239.5,241.5C 237.811,240.069 235.811,239.236 233.5,239C 232.978,238.439 232.645,237.772 232.5,237C 233.25,234.429 234.583,232.262 236.5,230.5C 239.174,229.501 239.841,227.834 238.5,225.5C 246.205,222.895 251.705,225.229 255,232.5C 256.149,235.393 256.649,238.393 256.5,241.5C 255.226,242.189 255.226,243.023 256.5,244C 267.848,244.832 279.181,244.666 290.5,243.5C 290.376,242.893 290.043,242.56 289.5,242.5C 290.63,228.785 297.963,220.285 311.5,217C 324.52,214.833 334.854,219 342.5,229.5C 342.145,230.522 341.478,231.189 340.5,231.5 Z"/></g>
<g><path style="opacity:1" fill="#0f7048" d="M 298.5,238.5 C 300.833,238.5 303.167,238.5 305.5,238.5C 307.903,238.448 310.236,238.781 312.5,239.5C 312.5,239.833 312.5,240.167 312.5,240.5C 307.676,240.008 303.01,239.341 298.5,238.5 Z"/></g>
<g><path style="opacity:1" fill="#3ce5ee" d="M 103.5,238.5 C 113.506,238.334 123.506,238.5 133.5,239C 136.47,244.45 139.803,249.617 143.5,254.5C 143.414,255.496 143.748,256.329 144.5,257C 142.527,257.495 140.527,257.662 138.5,257.5C 133.821,257.334 129.155,257.501 124.5,258C 122.534,259.347 122.201,260.847 123.5,262.5C 123.414,263.496 123.748,264.329 124.5,265C 126.167,265.333 127.833,265.667 129.5,266C 127.193,266.354 126.859,267.354 128.5,269C 126.755,270.742 125.421,272.742 124.5,275C 125.074,276.607 125.74,278.107 126.5,279.5C 124.5,280.167 122.5,280.833 120.5,281.5C 111.939,268.633 105.605,254.8 101.5,240C 102.416,239.722 103.082,239.222 103.5,238.5 Z"/></g>
<g><path style="opacity:0.965" fill="#8c595c" d="M 141.5,241.5 C 143.796,242.733 145.13,244.733 145.5,247.5C 143.684,245.882 142.351,243.882 141.5,241.5 Z"/></g>
<g><path style="opacity:1" fill="#3f4f59" d="M 256.5,241.5 C 267.419,242.477 278.419,242.81 289.5,242.5C 290.043,242.56 290.376,242.893 290.5,243.5C 279.181,244.666 267.848,244.832 256.5,244C 255.226,243.023 255.226,242.189 256.5,241.5 Z"/></g>
<g><path style="opacity:1" fill="#fe7724" d="M 231.5,192.5 C 236.608,196.761 237.775,202.094 235,208.5C 234.333,210.5 233,211.833 231,212.5C 229.601,216.231 227.768,219.731 225.5,223C 224.542,226.163 224.375,229.33 225,232.5C 223.354,234.569 221.187,235.902 218.5,236.5C 219.428,237.768 219.595,239.101 219,240.5C 217.281,243.219 214.947,245.219 212,246.5C 211.503,249.146 211.336,251.813 211.5,254.5C 208.386,254.555 206.052,255.888 204.5,258.5C 196.39,261.087 188.39,261.087 180.5,258.5C 186.578,259.045 192.245,257.878 197.5,255C 199.137,252.69 201.304,251.19 204,250.5C 205.525,247.437 207.525,244.77 210,242.5C 210.483,241.552 210.649,240.552 210.5,239.5C 224.774,227.271 231.774,211.604 231.5,192.5 Z"/></g>
<g><path style="opacity:1" fill="#eb4950" d="M 230.5,243.5 C 233.5,244.833 236.5,244.833 239.5,243.5C 239.552,245.903 239.219,248.236 238.5,250.5C 236.167,253.5 233.5,256.167 230.5,258.5C 228.973,258.427 227.973,259.094 227.5,260.5C 226.341,262.25 224.674,263.25 222.5,263.5C 222.736,261.618 222.736,259.784 222.5,258C 221.833,257.667 221.167,257.333 220.5,257C 223.882,256.824 227.215,256.324 230.5,255.5C 228.835,255.166 227.001,255.166 225,255.5C 224.552,253.591 225.385,252.424 227.5,252C 225.574,251.578 224.574,250.411 224.5,248.5C 225.828,247.493 226.828,246.16 227.5,244.5C 228.325,243.614 229.325,243.281 230.5,243.5 Z"/></g>
<g><path style="opacity:0.847" fill="#966666" d="M 239.5,241.5 C 242.281,244.766 241.947,247.766 238.5,250.5C 239.219,248.236 239.552,245.903 239.5,243.5C 239.5,242.833 239.5,242.167 239.5,241.5 Z"/></g>
<g><path style="opacity:1" fill="#fd871e" d="M 210.5,239.5 C 210.649,240.552 210.483,241.552 210,242.5C 207.525,244.77 205.525,247.437 204,250.5C 201.304,251.19 199.137,252.69 197.5,255C 192.245,257.878 186.578,259.045 180.5,258.5C 177.673,258.416 175.006,257.75 172.5,256.5C 165.397,253.117 159.73,248.117 155.5,241.5C 157.5,242.5 159.5,243.5 161.5,244.5C 164.21,246.108 167.21,247.275 170.5,248C 178.167,248.667 185.833,248.667 193.5,248C 194.044,247.283 194.711,246.783 195.5,246.5C 200.988,245.12 205.988,242.786 210.5,239.5 Z"/></g>
<g><path style="opacity:0.89" fill="#6c4144" d="M 145.5,247.5 C 147.531,248.539 148.864,250.205 149.5,252.5C 147.457,251.421 146.124,249.754 145.5,247.5 Z"/></g>
<g><path style="opacity:1" fill="#f84d5a" d="M 150.5,236.5 C 152.395,237.973 154.061,239.64 155.5,241.5C 159.73,248.117 165.397,253.117 172.5,256.5C 172.657,257.873 172.49,259.207 172,260.5C 171.667,259.833 171.333,259.167 171,258.5C 170.167,260 169,261.167 167.5,262C 168.973,262.71 169.64,263.876 169.5,265.5C 168.167,265.167 166.833,264.833 165.5,264.5C 165.027,263.094 164.027,262.427 162.5,262.5C 161.656,260.241 159.989,259.241 157.5,259.5C 154.21,257.876 151.543,255.543 149.5,252.5C 148.864,250.205 147.531,248.539 145.5,247.5C 145.13,244.733 143.796,242.733 141.5,241.5C 140.662,241.158 140.328,240.492 140.5,239.5C 140.5,238.5 140.5,237.5 140.5,236.5C 140.5,235.833 140.5,235.167 140.5,234.5C 142.541,232.742 144.708,232.075 147,232.5C 147.66,234.324 148.827,235.657 150.5,236.5 Z"/></g>
<g><path style="opacity:0.616" fill="#6f907d" d="M 325.5,238.5 C 327.656,240.332 328.99,242.666 329.5,245.5C 328.78,249.946 326.78,253.613 323.5,256.5C 323.5,256.167 323.5,255.833 323.5,255.5C 327.185,251.637 328.185,247.304 326.5,242.5C 326.167,241.167 325.833,239.833 325.5,238.5 Z"/></g>
<g><path style="opacity:1" fill="#11a149" d="M 312.5,240.5 C 312.5,240.167 312.5,239.833 312.5,239.5C 314.153,240.605 315.82,240.771 317.5,240C 316.397,241.68 316.73,243.18 318.5,244.5C 321.055,245.461 323.388,246.794 325.5,248.5C 326.466,246.604 326.799,244.604 326.5,242.5C 328.185,247.304 327.185,251.637 323.5,255.5C 321.508,255.672 319.842,255.005 318.5,253.5C 317.833,250.358 317.166,247.358 316.5,244.5C 315.5,242.833 314.167,241.5 312.5,240.5 Z"/></g>
<g><path style="opacity:1" fill="#607581" d="M 294.5,252.5 C 282.5,252.5 270.5,252.5 258.5,252.5C 258.5,254.167 258.5,255.833 258.5,257.5C 257.539,255.735 257.205,253.735 257.5,251.5C 270.011,251.171 282.345,251.505 294.5,252.5 Z"/></g>
<g><path style="opacity:1" fill="#f6f8f7" d="M 294.5,252.5 C 296.775,256.307 300.108,258.641 304.5,259.5C 305.278,260.156 305.944,260.989 306.5,262C 306.287,265.026 305.287,267.526 303.5,269.5C 289.151,269.833 274.818,269.499 260.5,268.5C 259.648,264.869 258.981,261.202 258.5,257.5C 258.5,255.833 258.5,254.167 258.5,252.5C 270.5,252.5 282.5,252.5 294.5,252.5 Z"/></g>
<g><path style="opacity:1" fill="#0e2c3b" d="M 310.5,224.5 C 307.235,226.584 304.068,228.917 301,231.5C 299.097,233.441 298.264,235.774 298.5,238.5C 303.01,239.341 307.676,240.008 312.5,240.5C 314.167,241.5 315.5,242.833 316.5,244.5C 315.904,249.551 315.904,254.551 316.5,259.5C 318.071,258.691 319.738,258.357 321.5,258.5C 319.891,259.771 318.058,260.771 316,261.5C 313.834,281.488 312.001,301.488 310.5,321.5C 309.414,321.38 308.747,320.713 308.5,319.5C 308,317.5 307.5,315.5 307,313.5C 305.984,314.634 305.317,314.301 305,312.5C 304.506,314.134 304.34,315.801 304.5,317.5C 303.167,317.5 301.833,317.5 300.5,317.5C 301.834,303.826 303.167,290.159 304.5,276.5C 302.833,276.5 301.167,276.5 299.5,276.5C 298.5,276.5 297.5,276.5 296.5,276.5C 288.833,276.5 281.167,276.5 273.5,276.5C 270.833,276.5 268.167,276.5 265.5,276.5C 265.167,276.5 264.833,276.5 264.5,276.5C 275.326,275.67 286.326,275.17 297.5,275C 301.102,274.365 301.768,273.032 299.5,271C 301.058,270.79 302.391,270.29 303.5,269.5C 305.287,267.526 306.287,265.026 306.5,262C 305.944,260.989 305.278,260.156 304.5,259.5C 306.256,258.448 306.923,256.781 306.5,254.5C 304.473,254.662 302.473,254.495 300.5,254C 301.252,253.329 301.586,252.496 301.5,251.5C 300.504,251.586 299.671,251.252 299,250.5C 298.155,247.87 298.655,245.536 300.5,243.5C 299.066,242.77 297.9,241.77 297,240.5C 296.993,236.408 296.826,232.408 296.5,228.5C 299.024,228.571 301.024,227.571 302.5,225.5C 303.192,226.025 303.692,226.692 304,227.5C 305.465,225.085 307.632,224.085 310.5,224.5 Z"/></g>
<g><path style="opacity:1" fill="#13dc5c" d="M 301.5,251.5 C 300.058,250.18 299.392,248.514 299.5,246.5C 302.167,246.5 304.833,246.5 307.5,246.5C 307.5,248.833 307.5,251.167 307.5,253.5C 305.142,253.747 303.142,253.081 301.5,251.5 Z"/></g>
<g><path style="opacity:1" fill="#218749" d="M 316.5,244.5 C 317.166,247.358 317.833,250.358 318.5,253.5C 319.842,255.005 321.508,255.672 323.5,255.5C 323.5,255.833 323.5,256.167 323.5,256.5C 323.167,257.5 322.5,258.167 321.5,258.5C 319.738,258.357 318.071,258.691 316.5,259.5C 315.904,254.551 315.904,249.551 316.5,244.5 Z"/></g>
<g><path style="opacity:1" fill="#fc4253" d="M 224.5,248.5 C 224.574,250.411 225.574,251.578 227.5,252C 225.385,252.424 224.552,253.591 225,255.5C 227.001,255.166 228.835,255.166 230.5,255.5C 227.215,256.324 223.882,256.824 220.5,257C 221.167,257.333 221.833,257.667 222.5,258C 222.736,259.784 222.736,261.618 222.5,263.5C 222.158,264.338 221.492,264.672 220.5,264.5C 218.033,264.755 216.033,265.755 214.5,267.5C 211.834,267.933 209.168,268.433 206.5,269C 205.944,269.383 205.611,269.883 205.5,270.5C 205.167,270.5 204.833,270.5 204.5,270.5C 195.8,270.711 187.133,270.377 178.5,269.5C 175.543,268.177 172.543,266.843 169.5,265.5C 169.64,263.876 168.973,262.71 167.5,262C 169,261.167 170.167,260 171,258.5C 171.333,259.167 171.667,259.833 172,260.5C 172.49,259.207 172.657,257.873 172.5,256.5C 175.006,257.75 177.673,258.416 180.5,258.5C 188.39,261.087 196.39,261.087 204.5,258.5C 212.064,256.873 218.73,253.54 224.5,248.5 Z"/></g>
<g><path style="opacity:1" fill="#1dafda" d="M 138.5,257.5 C 136.031,258.317 133.365,258.817 130.5,259C 129.269,260.183 129.269,261.349 130.5,262.5C 135.435,263.448 140.435,263.781 145.5,263.5C 138.172,265.02 130.838,264.686 123.5,262.5C 122.201,260.847 122.534,259.347 124.5,258C 129.155,257.501 133.821,257.334 138.5,257.5 Z"/></g>
<g><path style="opacity:1" fill="#2893ca" d="M 143.5,254.5 C 145.614,257.07 147.947,259.403 150.5,261.5C 149.175,262.953 148.342,262.619 148,260.5C 147.302,261.691 146.469,262.691 145.5,263.5C 140.435,263.781 135.435,263.448 130.5,262.5C 129.269,261.349 129.269,260.183 130.5,259C 133.365,258.817 136.031,258.317 138.5,257.5C 140.527,257.662 142.527,257.495 144.5,257C 143.748,256.329 143.414,255.496 143.5,254.5 Z"/></g>
<g><path style="opacity:1" fill="#b25c63" d="M 157.5,259.5 C 159.989,259.241 161.656,260.241 162.5,262.5C 160.336,262.279 158.67,261.279 157.5,259.5 Z"/></g>
<g><path style="opacity:0.016" fill="#251c1d" d="M 230.5,258.5 C 230.027,259.906 229.027,260.573 227.5,260.5C 227.973,259.094 228.973,258.427 230.5,258.5 Z"/></g>
<g><path style="opacity:1" fill="#5d90a7" d="M 243.5,266.5 C 243.167,266.5 242.833,266.5 242.5,266.5C 241.766,265.292 241.433,263.959 241.5,262.5C 237.818,262.555 234.485,263.555 231.5,265.5C 234.239,261.753 237.906,259.753 242.5,259.5C 242.993,261.806 243.326,264.139 243.5,266.5 Z"/></g>
<g><path style="opacity:0.255" fill="#454d4d" d="M 151.5,261.5 C 152.833,262.167 153.833,263.167 154.5,264.5C 152.5,264.5 151.5,263.5 151.5,261.5 Z"/></g>
<g><path style="opacity:1" fill="#28ddf5" d="M 150.5,261.5 C 150.833,261.5 151.167,261.5 151.5,261.5C 151.5,263.5 152.5,264.5 154.5,264.5C 155.028,265.721 155.695,266.887 156.5,268C 159.025,268.424 161.025,269.59 162.5,271.5C 160.014,272.462 160.014,273.295 162.5,274C 161.234,274.309 160.067,274.809 159,275.5C 158.667,275.167 158.333,274.833 158,274.5C 157.418,277.668 156.418,278.001 155,275.5C 154.374,277.991 153.541,277.991 152.5,275.5C 151.646,276.522 150.646,277.355 149.5,278C 141.808,278.308 134.142,278.808 126.5,279.5C 125.74,278.107 125.074,276.607 124.5,275C 125.421,272.742 126.755,270.742 128.5,269C 126.859,267.354 127.193,266.354 129.5,266C 127.833,265.667 126.167,265.333 124.5,265C 123.748,264.329 123.414,263.496 123.5,262.5C 130.838,264.686 138.172,265.02 145.5,263.5C 146.469,262.691 147.302,261.691 148,260.5C 148.342,262.619 149.175,262.953 150.5,261.5 Z"/></g>
<g><path style="opacity:0.4" fill="#613e42" d="M 162.5,262.5 C 164.027,262.427 165.027,263.094 165.5,264.5C 163.973,264.573 162.973,263.906 162.5,262.5 Z"/></g>
<g><path style="opacity:0.725" fill="#895860" d="M 220.5,264.5 C 219.089,266.539 217.089,267.539 214.5,267.5C 216.033,265.755 218.033,264.755 220.5,264.5 Z"/></g>
<g><path style="opacity:0.769" fill="#7f5256" d="M 165.5,264.5 C 166.833,264.833 168.167,265.167 169.5,265.5C 172.543,266.843 175.543,268.177 178.5,269.5C 173.536,269.184 169.203,267.517 165.5,264.5 Z"/></g>
<g><path style="opacity:0.953" fill="#2c3a41" d="M 95.5,251.5 C 100.175,264.029 106.175,275.529 113.5,286C 113.272,286.399 112.938,286.565 112.5,286.5C 104.478,276.119 98.811,264.452 95.5,251.5 Z"/></g>
<g><path style="opacity:0.804" fill="#7f4d53" d="M 214.5,267.5 C 214.389,268.117 214.056,268.617 213.5,269C 210.832,269.567 208.166,270.067 205.5,270.5C 205.611,269.883 205.944,269.383 206.5,269C 209.168,268.433 211.834,267.933 214.5,267.5 Z"/></g>
<g><path style="opacity:1" fill="#6293a6" d="M 231.5,265.5 C 230.766,266.708 230.433,268.041 230.5,269.5C 227.557,269.98 224.89,270.98 222.5,272.5C 220.236,273.219 217.903,273.552 215.5,273.5C 221.073,271.38 226.407,268.713 231.5,265.5 Z"/></g>
<g><path style="opacity:0.467" fill="#6f5257" d="M 178.5,269.5 C 187.133,270.377 195.8,270.711 204.5,270.5C 198.814,272.229 193.314,272.895 188,272.5C 184.633,271.867 181.466,270.867 178.5,269.5 Z"/></g>
<g><path style="opacity:1" fill="#71a1a8" d="M 154.5,264.5 C 162.237,269.535 170.57,273.202 179.5,275.5C 179.5,275.833 179.5,276.167 179.5,276.5C 173.503,275.651 167.836,273.985 162.5,271.5C 161.025,269.59 159.025,268.424 156.5,268C 155.695,266.887 155.028,265.721 154.5,264.5 Z"/></g>
<g><path style="opacity:1" fill="#21c7f1" d="M 162.5,271.5 C 167.836,273.985 173.503,275.651 179.5,276.5C 185.9,278.108 192.234,278.441 198.5,277.5C 200.735,277.205 202.735,277.539 204.5,278.5C 201.794,278.575 199.127,278.908 196.5,279.5C 190.504,278.866 184.504,278.7 178.5,279C 177.663,280.011 177.33,281.178 177.5,282.5C 173.613,282.646 169.946,283.313 166.5,284.5C 160.04,286.033 153.707,288.033 147.5,290.5C 147.879,292.213 148.879,293.213 150.5,293.5C 153.962,294.482 157.629,294.815 161.5,294.5C 161.5,295.833 161.5,297.167 161.5,298.5C 157.143,301.345 152.477,303.678 147.5,305.5C 143.59,303.912 140.257,301.579 137.5,298.5C 141.266,300.155 144.599,298.988 147.5,295C 146.833,294.667 146.167,294.333 145.5,294C 145.721,292.201 146.054,290.368 146.5,288.5C 139.678,287.182 133.011,287.182 126.5,288.5C 124.529,286.192 122.529,283.858 120.5,281.5C 122.5,280.833 124.5,280.167 126.5,279.5C 134.142,278.808 141.808,278.308 149.5,278C 150.646,277.355 151.646,276.522 152.5,275.5C 153.541,277.991 154.374,277.991 155,275.5C 156.418,278.001 157.418,277.668 158,274.5C 158.333,274.833 158.667,275.167 159,275.5C 160.067,274.809 161.234,274.309 162.5,274C 160.014,273.295 160.014,272.462 162.5,271.5 Z"/></g>
<g><path style="opacity:0.467" fill="#516465" d="M 179.5,276.5 C 179.5,276.167 179.5,275.833 179.5,275.5C 185.769,276.604 192.103,277.271 198.5,277.5C 192.234,278.441 185.9,278.108 179.5,276.5 Z"/></g>
<g><path style="opacity:1" fill="#5ea0ba" d="M 215.5,274.5 C 212.2,276.642 208.533,277.975 204.5,278.5C 202.735,277.539 200.735,277.205 198.5,277.5C 203.773,276.549 209.439,275.549 215.5,274.5 Z"/></g>
<g><path style="opacity:1" fill="#0ba2ee" d="M 242.5,266.5 C 242.654,274.62 243.654,282.62 245.5,290.5C 238.342,286.648 230.675,285.482 222.5,287C 215.687,291.242 208.353,294.076 200.5,295.5C 198.833,295.5 197.167,295.5 195.5,295.5C 200.402,294.122 204.402,291.289 207.5,287C 208.793,286.51 210.127,286.343 211.5,286.5C 210.637,282.838 211.97,280.672 215.5,280C 215.167,279.667 214.833,279.333 214.5,279C 215.5,278.667 216.5,278.333 217.5,278C 219.418,276.343 221.085,274.51 222.5,272.5C 224.89,270.98 227.557,269.98 230.5,269.5C 230.433,268.041 230.766,266.708 231.5,265.5C 234.485,263.555 237.818,262.555 241.5,262.5C 241.433,263.959 241.766,265.292 242.5,266.5 Z"/></g>
<g><path style="opacity:1" fill="#f7f8f5" d="M 264.5,276.5 C 264.833,276.5 265.167,276.5 265.5,276.5C 265.998,281.152 266.331,285.819 266.5,290.5C 266.999,297.043 267.999,303.377 269.5,309.5C 269.328,310.492 269.662,311.158 270.5,311.5C 279.324,312.657 288.324,312.824 297.5,312C 298.457,303.574 299.124,295.074 299.5,286.5C 299.5,283.167 299.5,279.833 299.5,276.5C 301.167,276.5 302.833,276.5 304.5,276.5C 303.167,290.159 301.834,303.826 300.5,317.5C 288.833,317.5 277.167,317.5 265.5,317.5C 264.221,303.777 262.555,290.11 260.5,276.5C 261.833,276.5 263.167,276.5 264.5,276.5 Z"/></g>
<g><path style="opacity:1" fill="#fca303" d="M 273.5,276.5 C 281.167,276.5 288.833,276.5 296.5,276.5C 294.948,281.015 293.948,285.682 293.5,290.5C 288.532,292.964 283.199,294.297 277.5,294.5C 277.5,295.833 277.5,297.167 277.5,298.5C 277.167,298.5 276.833,298.5 276.5,298.5C 276.579,290.982 275.579,283.649 273.5,276.5 Z"/></g>
<g><path style="opacity:1" fill="#1597d5" d="M 133.5,279.5 C 138.844,279.334 144.177,279.501 149.5,280C 150.935,282.267 150.602,284.267 148.5,286C 141.174,286.5 133.841,286.666 126.5,286.5C 126.535,281.798 128.868,279.465 133.5,279.5 Z"/></g>
<g><path style="opacity:1" fill="#6b97ac" d="M 242.5,266.5 C 242.833,266.5 243.167,266.5 243.5,266.5C 245.673,279.384 247.34,292.384 248.5,305.5C 247.833,305.167 247.167,304.833 246.5,304.5C 246.658,301.098 246.324,297.764 245.5,294.5C 245.5,293.167 245.5,291.833 245.5,290.5C 243.654,282.62 242.654,274.62 242.5,266.5 Z"/></g>
<g><path style="opacity:1" fill="#1689c8" d="M 166.5,284.5 C 172.842,284.334 179.175,284.5 185.5,285C 187.421,286.241 187.754,287.741 186.5,289.5C 179.361,289.913 172.361,291.08 165.5,293C 160.511,293.499 155.511,293.666 150.5,293.5C 148.879,293.213 147.879,292.213 147.5,290.5C 153.707,288.033 160.04,286.033 166.5,284.5 Z"/></g>
<g><path style="opacity:1" fill="#24d4f3" d="M 137.5,298.5 C 133.209,295.877 129.543,292.544 126.5,288.5C 133.011,287.182 139.678,287.182 146.5,288.5C 146.054,290.368 145.721,292.201 145.5,294C 146.167,294.333 146.833,294.667 147.5,295C 144.599,298.988 141.266,300.155 137.5,298.5 Z"/></g>
<g><path style="opacity:1" fill="#fde10b" d="M 265.5,276.5 C 268.167,276.5 270.833,276.5 273.5,276.5C 275.579,283.649 276.579,290.982 276.5,298.5C 277.73,304.485 275.396,307.152 269.5,306.5C 269.306,300.88 268.306,295.547 266.5,290.5C 266.331,285.819 265.998,281.152 265.5,276.5 Z"/></g>
<g><path style="opacity:1" fill="#10b4f3" d="M 196.5,279.5 C 195.942,280.79 194.942,281.623 193.5,282C 196.332,283.908 195.999,284.741 192.5,284.5C 192.48,286.143 193.147,287.476 194.5,288.5C 190.302,290.623 185.968,292.456 181.5,294C 180.62,295.356 180.286,296.856 180.5,298.5C 178.5,298.5 176.5,298.5 174.5,298.5C 174.48,300.143 175.147,301.476 176.5,302.5C 172.8,303.924 171.134,306.591 171.5,310.5C 169.692,310.491 168.025,310.991 166.5,312C 169.09,313.445 171.757,314.612 174.5,315.5C 174.5,315.833 174.5,316.167 174.5,316.5C 164.663,314.744 155.663,311.077 147.5,305.5C 152.477,303.678 157.143,301.345 161.5,298.5C 161.5,297.167 161.5,295.833 161.5,294.5C 157.629,294.815 153.962,294.482 150.5,293.5C 155.511,293.666 160.511,293.499 165.5,293C 172.361,291.08 179.361,289.913 186.5,289.5C 187.754,287.741 187.421,286.241 185.5,285C 179.175,284.5 172.842,284.334 166.5,284.5C 169.946,283.313 173.613,282.646 177.5,282.5C 177.33,281.178 177.663,280.011 178.5,279C 184.504,278.7 190.504,278.866 196.5,279.5 Z"/></g>
<g><path style="opacity:1" fill="#096cbd" d="M 245.5,290.5 C 245.5,291.833 245.5,293.167 245.5,294.5C 243.411,295.891 241.078,296.558 238.5,296.5C 233.517,295.577 228.517,295.41 223.5,296C 220.381,297.984 217.048,299.484 213.5,300.5C 208.239,300.541 203.239,299.374 198.5,297C 199.416,296.722 200.082,296.222 200.5,295.5C 208.353,294.076 215.687,291.242 222.5,287C 230.675,285.482 238.342,286.648 245.5,290.5 Z"/></g>
<g><path style="opacity:1" fill="#0badf3" d="M 222.5,272.5 C 221.085,274.51 219.418,276.343 217.5,278C 216.5,278.333 215.5,278.667 214.5,279C 214.833,279.333 215.167,279.667 215.5,280C 211.97,280.672 210.637,282.838 211.5,286.5C 210.127,286.343 208.793,286.51 207.5,287C 204.402,291.289 200.402,294.122 195.5,295.5C 190.978,295.53 187.311,297.197 184.5,300.5C 184.137,302.911 185.137,304.411 187.5,305C 190.146,305.497 192.813,305.664 195.5,305.5C 191.966,306.793 188.299,306.793 184.5,305.5C 183.304,305.846 183.304,306.346 184.5,307C 180.681,309.323 177.348,312.156 174.5,315.5C 171.757,314.612 169.09,313.445 166.5,312C 168.025,310.991 169.692,310.491 171.5,310.5C 171.134,306.591 172.8,303.924 176.5,302.5C 175.147,301.476 174.48,300.143 174.5,298.5C 176.5,298.5 178.5,298.5 180.5,298.5C 180.286,296.856 180.62,295.356 181.5,294C 185.968,292.456 190.302,290.623 194.5,288.5C 193.147,287.476 192.48,286.143 192.5,284.5C 195.999,284.741 196.332,283.908 193.5,282C 194.942,281.623 195.942,280.79 196.5,279.5C 199.127,278.908 201.794,278.575 204.5,278.5C 208.533,277.975 212.2,276.642 215.5,274.5C 215.5,274.167 215.5,273.833 215.5,273.5C 217.903,273.552 220.236,273.219 222.5,272.5 Z"/></g>
<g><path style="opacity:1" fill="#fa590b" d="M 296.5,276.5 C 297.5,276.5 298.5,276.5 299.5,276.5C 299.5,279.833 299.5,283.167 299.5,286.5C 297.655,294.592 296.655,302.926 296.5,311.5C 290.5,311.5 284.5,311.5 278.5,311.5C 278.5,311.167 278.5,310.833 278.5,310.5C 282.295,308.825 286.462,307.825 291,307.5C 291.835,301.823 292.669,296.156 293.5,290.5C 293.948,285.682 294.948,281.015 296.5,276.5 Z"/></g>
<g><path style="opacity:1" fill="#0b8ed0" d="M 195.5,295.5 C 197.167,295.5 198.833,295.5 200.5,295.5C 200.082,296.222 199.416,296.722 198.5,297C 203.239,299.374 208.239,300.541 213.5,300.5C 213.5,301.5 213.5,302.5 213.5,303.5C 212.167,303.5 210.833,303.5 209.5,303.5C 209.611,302.883 209.944,302.383 210.5,302C 201.756,301.805 193.089,301.305 184.5,300.5C 187.311,297.197 190.978,295.53 195.5,295.5 Z"/></g>
<g><path style="opacity:1" fill="#fcf195" d="M 266.5,290.5 C 268.306,295.547 269.306,300.88 269.5,306.5C 269.5,307.5 269.5,308.5 269.5,309.5C 267.999,303.377 266.999,297.043 266.5,290.5 Z"/></g>
<g><path style="opacity:1" fill="#0691e8" d="M 245.5,294.5 C 246.324,297.764 246.658,301.098 246.5,304.5C 233.767,311.966 220.1,316.633 205.5,318.5C 198.978,318.823 192.645,318.49 186.5,317.5C 186.389,316.883 186.056,316.383 185.5,316C 190.626,313.789 195.626,311.289 200.5,308.5C 203.252,309.213 205.918,308.713 208.5,307C 207.829,306.014 207.829,304.847 208.5,303.5C 208.833,303.5 209.167,303.5 209.5,303.5C 210.833,303.5 212.167,303.5 213.5,303.5C 213.5,302.5 213.5,301.5 213.5,300.5C 217.048,299.484 220.381,297.984 223.5,296C 228.517,295.41 233.517,295.577 238.5,296.5C 241.078,296.558 243.411,295.891 245.5,294.5 Z"/></g>
<g><path style="opacity:1" fill="#fd8601" d="M 293.5,290.5 C 292.669,296.156 291.835,301.823 291,307.5C 286.462,307.825 282.295,308.825 278.5,310.5C 277.517,306.702 277.183,302.702 277.5,298.5C 277.5,297.167 277.5,295.833 277.5,294.5C 283.199,294.297 288.532,292.964 293.5,290.5 Z"/></g>
<g><path style="opacity:1" fill="#38dffd" d="M 184.5,300.5 C 193.089,301.305 201.756,301.805 210.5,302C 209.944,302.383 209.611,302.883 209.5,303.5C 209.167,303.5 208.833,303.5 208.5,303.5C 204.227,304.465 199.894,305.131 195.5,305.5C 192.813,305.664 190.146,305.497 187.5,305C 185.137,304.411 184.137,302.911 184.5,300.5 Z"/></g>
<g><path style="opacity:1" fill="#08a1ef" d="M 208.5,303.5 C 207.829,304.847 207.829,306.014 208.5,307C 205.918,308.713 203.252,309.213 200.5,308.5C 195.626,311.289 190.626,313.789 185.5,316C 186.056,316.383 186.389,316.883 186.5,317.5C 183.833,317.5 181.167,317.5 178.5,317.5C 177.041,317.567 175.708,317.234 174.5,316.5C 174.5,316.167 174.5,315.833 174.5,315.5C 177.348,312.156 180.681,309.323 184.5,307C 183.304,306.346 183.304,305.846 184.5,305.5C 188.299,306.793 191.966,306.793 195.5,305.5C 199.894,305.131 204.227,304.465 208.5,303.5 Z"/></g>
<g><path style="opacity:1" fill="#fbb213" d="M 276.5,298.5 C 276.833,298.5 277.167,298.5 277.5,298.5C 277.183,302.702 277.517,306.702 278.5,310.5C 278.5,310.833 278.5,311.167 278.5,311.5C 275.833,311.5 273.167,311.5 270.5,311.5C 269.662,311.158 269.328,310.492 269.5,309.5C 269.5,308.5 269.5,307.5 269.5,306.5C 275.396,307.152 277.73,304.485 276.5,298.5 Z"/></g>
<g><path style="opacity:1" fill="#fde7d2" d="M 299.5,286.5 C 299.124,295.074 298.457,303.574 297.5,312C 288.324,312.824 279.324,312.657 270.5,311.5C 273.167,311.5 275.833,311.5 278.5,311.5C 284.5,311.5 290.5,311.5 296.5,311.5C 296.655,302.926 297.655,294.592 299.5,286.5 Z"/></g>
<g><path style="opacity:1" fill="#0b2a40" d="M 103.5,238.5 C 103.082,239.222 102.416,239.722 101.5,240C 105.605,254.8 111.939,268.633 120.5,281.5C 122.529,283.858 124.529,286.192 126.5,288.5C 129.543,292.544 133.209,295.877 137.5,298.5C 140.257,301.579 143.59,303.912 147.5,305.5C 155.663,311.077 164.663,314.744 174.5,316.5C 175.708,317.234 177.041,317.567 178.5,317.5C 183.933,318.931 189.599,319.598 195.5,319.5C 199.018,319.498 202.351,319.165 205.5,318.5C 220.1,316.633 233.767,311.966 246.5,304.5C 247.167,304.833 247.833,305.167 248.5,305.5C 250.327,309.348 249.66,312.681 246.5,315.5C 212.049,332.866 177.716,332.699 143.5,315C 131.04,307.702 120.706,298.202 112.5,286.5C 112.938,286.565 113.272,286.399 113.5,286C 106.175,275.529 100.175,264.029 95.5,251.5C 94.2354,247.546 94.2354,243.546 95.5,239.5C 98.0841,238.607 100.751,238.274 103.5,238.5 Z"/></g>
<g><path style="opacity:1" fill="#1477b2" d="M 178.5,317.5 C 181.167,317.5 183.833,317.5 186.5,317.5C 192.645,318.49 198.978,318.823 205.5,318.5C 202.351,319.165 199.018,319.498 195.5,319.5C 189.599,319.598 183.933,318.931 178.5,317.5 Z"/></g>
<g><path style="opacity:0.412" fill="#343b42" d="M 309.5,323.5 C 309.67,324.822 309.337,325.989 308.5,327C 291.328,327.828 274.328,327.662 257.5,326.5C 257.833,322.5 258.167,322.5 258.5,326.5C 274.17,326.667 289.837,326.5 305.5,326C 307.133,325.52 308.466,324.687 309.5,323.5 Z"/></g>
<g><path style="opacity:1" fill="#192f41" d="M 102.5,379.5 C 103.931,380.78 104.598,382.447 104.5,384.5C 105.822,384.67 106.989,384.337 108,383.5C 108.595,384.899 108.428,386.232 107.5,387.5C 113.672,391.775 120.339,392.609 127.5,390C 128.357,389.311 129.023,388.478 129.5,387.5C 128.407,384.523 126.907,382.523 125,381.5C 124.25,382.126 123.416,382.626 122.5,383C 118.833,383.333 115.167,383.667 111.5,384C 109.869,385.836 109.202,385.336 109.5,382.5C 110.5,382.5 111.5,382.5 112.5,382.5C 112.716,380.319 111.883,378.653 110,377.5C 109.801,369.784 109.301,362.118 108.5,354.5C 109.167,353.5 109.833,352.5 110.5,351.5C 108.257,350.526 105.924,350.192 103.5,350.5C 103.826,359.349 103.493,368.016 102.5,376.5C 101.343,368.01 101.176,359.343 102,350.5C 104.497,348.522 107.331,348.022 110.5,349C 111.126,349.75 111.626,350.584 112,351.5C 112.333,360.167 112.667,368.833 113,377.5C 116.552,383.689 120.552,384.022 125,378.5C 125.18,368.59 125.68,358.756 126.5,349C 129.993,347.996 133.159,348.496 136,350.5C 136.667,360.5 136.667,370.5 136,380.5C 130.776,392.802 121.942,396.302 109.5,391C 105.305,388.304 102.971,384.47 102.5,379.5 Z"/></g>
<g><path style="opacity:1" fill="#0a283e" d="M 192.5,350.5 C 191.167,363.833 191.167,377.167 192.5,390.5C 190.618,393.218 188.285,393.885 185.5,392.5C 185.217,391.711 184.717,391.044 184,390.5C 183.778,382.464 183.278,376.13 182.5,371.5C 178.786,376.216 174.453,380.216 169.5,383.5C 165.175,381.175 161.841,377.841 159.5,373.5C 159.938,373.565 160.272,373.399 160.5,373C 159.333,371.833 158.167,370.667 157,369.5C 156.179,376.346 156.346,383.013 157.5,389.5C 156.675,392.152 154.842,393.485 152,393.5C 149.695,393.516 148.028,392.516 147,390.5C 146.333,377.167 146.333,363.833 147,350.5C 148.808,348.604 150.975,348.104 153.5,349C 159,355.167 164.5,361.333 170,367.5C 175.356,361.231 180.856,355.064 186.5,349C 188.989,348.059 190.989,348.559 192.5,350.5 Z"/></g>
<g><path style="opacity:1" fill="#0b2a40" d="M 227.5,366.5 C 226.206,368.355 226.539,368.689 228.5,367.5C 233.313,361.519 238.313,355.686 243.5,350C 245.115,349.938 246.448,349.771 247.5,349.5C 248.83,355.966 249.497,362.799 249.5,370C 249.5,377.008 249.166,383.842 248.5,390.5C 246.371,391.495 243.871,391.495 241,390.5C 240.831,383.476 240.331,376.476 239.5,369.5C 238.15,370.95 236.484,371.617 234.5,371.5C 233.511,376.705 230.844,377.705 226.5,374.5C 223.571,377.446 223.905,378.613 227.5,378C 227.273,379.135 226.94,380.302 226.5,381.5C 223.769,379.093 221.102,376.759 218.5,374.5C 217.395,373.4 216.062,372.733 214.5,372.5C 217.045,371.549 217.045,370.549 214.5,369.5C 213.669,376.476 213.169,383.476 213,390.5C 210.667,391.833 208.333,391.833 206,390.5C 205.831,377.327 205.331,364.327 204.5,351.5C 204.414,350.504 204.748,349.671 205.5,349C 207.167,348.333 208.833,348.333 210.5,349C 216.244,354.848 221.91,360.681 227.5,366.5 Z"/></g>
<g><path style="opacity:1" fill="#0a253a" d="M 322.5,387.5 C 323.043,387.44 323.376,387.107 323.5,386.5C 322.167,384.833 320.833,383.167 319.5,381.5C 317.235,380.353 314.902,380.186 312.5,381C 312.042,385.041 311.042,388.874 309.5,392.5C 309.44,393.043 309.107,393.376 308.5,393.5C 306.664,392.972 304.997,392.306 303.5,391.5C 303.938,391.565 304.272,391.399 304.5,391C 303.842,377.735 303.175,364.569 302.5,351.5C 306.107,350.176 310.107,349.509 314.5,349.5C 324.157,347.691 331.324,351.025 336,359.5C 337.774,366.837 335.941,373.004 330.5,378C 331.953,381.072 333.787,383.905 336,386.5C 336.26,392.284 333.427,394.45 327.5,393C 325.261,391.69 323.594,389.857 322.5,387.5 Z M 320.5,360.5 C 324.42,361.89 325.42,364.556 323.5,368.5C 320.242,369.417 316.909,369.751 313.5,369.5C 313.5,366.5 313.5,363.5 313.5,360.5C 315.833,360.5 318.167,360.5 320.5,360.5 Z"/></g>
<g><path style="opacity:1" fill="#0b273c" d="M 288.5,359.5 C 282.69,358.51 276.69,358.177 270.5,358.5C 270.5,361.5 270.5,364.5 270.5,367.5C 274.833,367.5 279.167,367.5 283.5,367.5C 283.777,370.448 283.444,373.281 282.5,376C 278.514,376.499 274.514,376.666 270.5,376.5C 270.5,378.167 270.5,379.833 270.5,381.5C 277.09,381.189 283.59,381.522 290,382.5C 290.784,385.76 290.617,388.927 289.5,392C 279.922,392.818 270.422,392.651 261,391.5C 258.994,377.465 259.161,363.465 261.5,349.5C 271.084,349.354 280.751,349.354 290.5,349.5C 291.069,353.329 290.402,356.663 288.5,359.5 Z"/></g>
<g><path style="opacity:0.863" fill="#35454d" d="M 247.5,349.5 C 246.448,349.771 245.115,349.938 243.5,350C 238.313,355.686 233.313,361.519 228.5,367.5C 226.539,368.689 226.206,368.355 227.5,366.5C 232.319,360.514 237.319,354.68 242.5,349C 244.387,348.22 246.054,348.387 247.5,349.5 Z"/></g>
<g><path style="opacity:0.388" fill="#434e55" d="M 288.5,359.5 C 282.925,360.452 277.259,360.786 271.5,360.5C 271.5,362.167 271.5,363.833 271.5,365.5C 275.971,364.911 279.971,365.577 283.5,367.5C 279.167,367.5 274.833,367.5 270.5,367.5C 270.5,364.5 270.5,361.5 270.5,358.5C 276.69,358.177 282.69,358.51 288.5,359.5 Z"/></g>
<g><path style="opacity:0.733" fill="#3d4c55" d="M 302.5,351.5 C 303.175,364.569 303.842,377.735 304.5,391C 304.272,391.399 303.938,391.565 303.5,391.5C 302.504,378.344 302.171,365.01 302.5,351.5 Z"/></g>
<g><path style="opacity:1" fill="#414e56" d="M 192.5,350.5 C 193.833,363.833 193.833,377.167 192.5,390.5C 191.167,377.167 191.167,363.833 192.5,350.5 Z"/></g>
<g><path style="opacity:1" fill="#0f283b" d="M 71.5,348.5 C 78.4956,347.468 84.6623,349.135 90,353.5C 90.9501,358.076 89.1167,361.076 84.5,362.5C 80.8144,359.663 76.8144,358.997 72.5,360.5C 71.1696,362.347 71.503,363.847 73.5,365C 78.1667,366.333 82.8333,367.667 87.5,369C 93.0386,374.471 93.8719,380.638 90,387.5C 82.3531,394.018 73.8531,395.185 64.5,391C 62.8603,389.605 61.3603,388.105 60,386.5C 59.5777,380.437 62.411,378.27 68.5,380C 72.6778,383.164 76.6778,383.164 80.5,380C 80.1802,378.347 79.1802,377.347 77.5,377C 70.7635,377.066 65.2635,374.566 61,369.5C 57.7585,358.955 61.2585,351.955 71.5,348.5 Z"/></g>
<g><path style="opacity:0.278" fill="#394650" d="M 320.5,360.5 C 318.167,360.5 315.833,360.5 313.5,360.5C 313.5,363.5 313.5,366.5 313.5,369.5C 315.631,370.314 317.964,370.814 320.5,371C 317.571,371.777 314.737,371.61 312,370.5C 311.501,366.848 311.335,363.182 311.5,359.5C 314.713,359.19 317.713,359.523 320.5,360.5 Z"/></g>
<g><path style="opacity:1" fill="#223440" d="M 248.5,390.5 C 245.959,394.07 242.959,394.403 239.5,391.5C 238.706,385.217 238.206,378.884 238,372.5C 234.988,376.846 231.321,380.512 227,383.5C 223.305,381.305 220.472,378.305 218.5,374.5C 221.102,376.759 223.769,379.093 226.5,381.5C 226.94,380.302 227.273,379.135 227.5,378C 223.905,378.613 223.571,377.446 226.5,374.5C 230.844,377.705 233.511,376.705 234.5,371.5C 236.484,371.617 238.15,370.95 239.5,369.5C 240.331,376.476 240.831,383.476 241,390.5C 243.871,391.495 246.371,391.495 248.5,390.5 Z"/></g>
<g><path style="opacity:0.816" fill="#6f7f89" d="M 159.5,373.5 C 158.883,373.389 158.383,373.056 158,372.5C 157.501,378.157 157.334,383.824 157.5,389.5C 156.346,383.013 156.179,376.346 157,369.5C 158.167,370.667 159.333,371.833 160.5,373C 160.272,373.399 159.938,373.565 159.5,373.5 Z"/></g>
<g><path style="opacity:1" fill="#01253d" d="M 102.5,379.5 C 102.5,378.5 102.5,377.5 102.5,376.5C 103.493,368.016 103.826,359.349 103.5,350.5C 105.924,350.192 108.257,350.526 110.5,351.5C 109.833,352.5 109.167,353.5 108.5,354.5C 109.301,362.118 109.801,369.784 110,377.5C 111.883,378.653 112.716,380.319 112.5,382.5C 111.5,382.5 110.5,382.5 109.5,382.5C 109.202,385.336 109.869,385.836 111.5,384C 115.167,383.667 118.833,383.333 122.5,383C 123.416,382.626 124.25,382.126 125,381.5C 126.907,382.523 128.407,384.523 129.5,387.5C 129.023,388.478 128.357,389.311 127.5,390C 120.339,392.609 113.672,391.775 107.5,387.5C 108.428,386.232 108.595,384.899 108,383.5C 106.989,384.337 105.822,384.67 104.5,384.5C 104.598,382.447 103.931,380.78 102.5,379.5 Z"/></g>
<g><path style="opacity:0.863" fill="#4c5e68" d="M 185.5,392.5 C 184.504,392.586 183.671,392.252 183,391.5C 182.5,384.842 182.334,378.175 182.5,371.5C 183.278,376.13 183.778,382.464 184,390.5C 184.717,391.044 185.217,391.711 185.5,392.5 Z"/></g>
<g><path style="opacity:1" fill="#3a4953" d="M 322.5,387.5 C 320.715,383.727 317.715,382.061 313.5,382.5C 313.664,385.187 313.497,387.854 313,390.5C 312.29,391.973 311.124,392.64 309.5,392.5C 311.042,388.874 312.042,385.041 312.5,381C 314.902,380.186 317.235,380.353 319.5,381.5C 320.833,383.167 322.167,384.833 323.5,386.5C 323.376,387.107 323.043,387.44 322.5,387.5 Z"/></g>
<g><path style="opacity:0.337" fill="#313f46" d="M 204.5,351.5 C 205.331,364.327 205.831,377.327 206,390.5C 208.333,391.833 210.667,391.833 213,390.5C 213.169,383.476 213.669,376.476 214.5,369.5C 217.045,370.549 217.045,371.549 214.5,372.5C 214.666,378.842 214.5,385.175 214,391.5C 211.061,393.813 207.895,394.146 204.5,392.5C 203.212,378.693 203.212,365.026 204.5,351.5 Z"/></g>
<g><path style="opacity:0.216" fill="#636156" d="M 151.5,403.5 C 149.784,403.629 148.117,403.962 146.5,404.5C 147.879,402.403 149.545,402.07 151.5,403.5 Z"/></g>
<g><path style="opacity:0.22" fill="#6b6659" d="M 214.5,403.5 C 218.556,402.147 222.556,402.647 226.5,405C 227.252,405.671 227.586,406.504 227.5,407.5C 225.313,406.242 222.98,405.242 220.5,404.5C 218.735,403.539 216.735,403.205 214.5,403.5 Z"/></g>
<g><path style="opacity:0.878" fill="#a0977b" d="M 128.5,405.5 C 126.621,404.659 124.621,404.325 122.5,404.5C 123.659,402.623 125.326,402.123 127.5,403C 128.252,403.671 128.586,404.504 128.5,405.5 Z"/></g>
<g><path style="opacity:0.004" fill="#32312c" d="M 151.5,403.5 C 152.833,403.5 153.5,404.167 153.5,405.5C 152.5,405.167 151.833,404.5 151.5,403.5 Z"/></g>
<g><path style="opacity:1" fill="#95886d" d="M 167.5,404.5 C 165.302,404.12 163.635,404.787 162.5,406.5C 162.167,406.5 161.833,406.5 161.5,406.5C 161.5,406.167 161.5,405.833 161.5,405.5C 163.097,402.016 165.097,401.683 167.5,404.5 Z"/></g>
<g><path style="opacity:0.612" fill="#7c705d" d="M 256.5,415.5 C 257.167,411.833 257.833,408.167 258.5,404.5C 255.163,404.187 252.829,405.52 251.5,408.5C 252.311,402.977 254.977,401.644 259.5,404.5C 260.333,408.669 259.333,412.335 256.5,415.5 Z"/></g>
<g><path style="opacity:1" fill="#ac9a7b" d="M 284.5,409.5 C 284.714,407.856 284.38,406.356 283.5,405C 278.833,404.333 274.167,404.333 269.5,405C 269,405.5 268.5,406 268,406.5C 267.5,413.158 267.334,419.825 267.5,426.5C 267.167,426.5 266.833,426.5 266.5,426.5C 265.346,420.013 265.179,413.346 266,406.5C 266.374,405.584 266.874,404.75 267.5,404C 272.746,402.494 278.079,402.161 283.5,403C 285.668,404.97 286.002,407.137 284.5,409.5 Z"/></g>
<g><path style="opacity:0.975" fill="#8e806a" d="M 312.5,408.5 C 306.782,404.84 300.449,403.506 293.5,404.5C 293.611,403.883 293.944,403.383 294.5,403C 300.064,401.99 305.398,402.657 310.5,405C 311.823,405.816 312.489,406.983 312.5,408.5 Z"/></g>
<g><path style="opacity:0.918" fill="#998461" d="M 214.5,403.5 C 216.735,403.205 218.735,403.539 220.5,404.5C 209.679,404.335 205.346,409.668 207.5,420.5C 207.5,421.5 207.5,422.5 207.5,423.5C 204.338,417.122 205.005,411.122 209.5,405.5C 211.022,404.438 212.688,403.771 214.5,403.5 Z"/></g>
<g><path style="opacity:0.671" fill="#8a816a" d="M 182.5,404.5 C 180.833,406.833 178.833,408.833 176.5,410.5C 177.5,407.5 179.5,405.5 182.5,404.5 Z"/></g>
<g><path style="opacity:1" fill="#f78316" d="M 284.5,409.5 C 280.5,409.5 276.5,409.5 272.5,409.5C 272.5,410.833 272.5,412.167 272.5,413.5C 274.857,413.337 277.19,413.503 279.5,414C 280.337,415.011 280.67,416.178 280.5,417.5C 280.5,417.833 280.5,418.167 280.5,418.5C 277.833,418.5 275.167,418.5 272.5,418.5C 272.5,419.833 272.5,421.167 272.5,422.5C 276.182,422.335 279.848,422.501 283.5,423C 284.38,424.356 284.714,425.856 284.5,427.5C 279.167,427.5 273.833,427.5 268.5,427.5C 267.833,427.5 267.5,427.167 267.5,426.5C 267.334,419.825 267.5,413.158 268,406.5C 268.5,406 269,405.5 269.5,405C 274.167,404.333 278.833,404.333 283.5,405C 284.38,406.356 284.714,407.856 284.5,409.5 Z"/></g>
<g><path style="opacity:1" fill="#f9831b" d="M 293.5,404.5 C 300.449,403.506 306.782,404.84 312.5,408.5C 312.663,410.857 312.497,413.19 312,415.5C 311.623,416.942 310.79,417.942 309.5,418.5C 308.133,420.79 308.8,422.456 311.5,423.5C 311.5,424.833 311.5,426.167 311.5,427.5C 310.127,427.657 308.793,427.49 307.5,427C 305.917,425.242 304.25,423.742 302.5,422.5C 301.432,421.566 300.099,421.232 298.5,421.5C 298.5,423.5 298.5,425.5 298.5,427.5C 296.833,427.5 295.167,427.5 293.5,427.5C 293.5,419.833 293.5,412.167 293.5,404.5 Z M 300.5,410.5 C 302.117,411.038 303.784,411.371 305.5,411.5C 305.5,412.5 305.5,413.5 305.5,414.5C 303.833,414.5 302.167,414.5 300.5,414.5C 300.5,413.167 300.5,411.833 300.5,410.5 Z"/></g>
<g><path style="opacity:1" fill="#f9aa10" d="M 86.5,404.5 C 87.8333,404.5 89.1667,404.5 90.5,404.5C 90.5,407.5 90.5,410.5 90.5,413.5C 93.5,413.5 96.5,413.5 99.5,413.5C 99.5,410.5 99.5,407.5 99.5,404.5C 101.144,404.286 102.644,404.62 104,405.5C 104.5,412.826 104.666,420.159 104.5,427.5C 103.167,427.5 101.833,427.5 100.5,427.5C 99.5975,424.609 99.2641,421.609 99.5,418.5C 96.5,418.5 93.5,418.5 90.5,418.5C 90.5,421.5 90.5,424.5 90.5,427.5C 88.8333,427.5 87.1667,427.5 85.5,427.5C 85.1746,419.648 85.508,411.982 86.5,404.5 Z"/></g>
<g><path style="opacity:0.993" fill="#9c8966" d="M 167.5,404.5 C 168.117,404.611 168.617,404.944 169,405.5C 169.667,412.5 169.667,419.5 169,426.5C 168.617,427.056 168.117,427.389 167.5,427.5C 167.5,419.833 167.5,412.167 167.5,404.5 Z"/></g>
<g><path style="opacity:1" fill="#e3b466" d="M 151.5,403.5 C 151.833,404.5 152.5,405.167 153.5,405.5C 154.5,405.833 155.167,406.5 155.5,407.5C 155.5,408.167 155.5,408.833 155.5,409.5C 153.518,406.863 150.852,405.53 147.5,405.5C 147.5,412.5 147.5,419.5 147.5,426.5C 149.167,426.5 150.833,426.5 152.5,426.5C 150.735,427.461 148.735,427.795 146.5,427.5C 145.167,419.833 145.167,412.167 146.5,404.5C 148.117,403.962 149.784,403.629 151.5,403.5 Z"/></g>
<g><path style="opacity:1" fill="#fba014" d="M 167.5,404.5 C 167.5,412.167 167.5,419.833 167.5,427.5C 165.712,427.785 164.045,427.452 162.5,426.5C 159.806,422.46 156.639,418.793 153,415.5C 152.501,419.152 152.335,422.818 152.5,426.5C 150.833,426.5 149.167,426.5 147.5,426.5C 147.5,419.5 147.5,412.5 147.5,405.5C 150.852,405.53 153.518,406.863 155.5,409.5C 156.167,409.833 156.833,410.167 157.5,410.5C 157.427,412.027 158.094,413.027 159.5,413.5C 160.338,413.842 160.672,414.508 160.5,415.5C 160.369,416.376 160.702,417.043 161.5,417.5C 162.489,413.893 162.823,410.226 162.5,406.5C 163.635,404.787 165.302,404.12 167.5,404.5 Z"/></g>
<g><path style="opacity:0.06" fill="#11100e" d="M 161.5,405.5 C 161.5,405.833 161.5,406.167 161.5,406.5C 161.81,409.713 161.477,412.713 160.5,415.5C 160.672,414.508 160.338,413.842 159.5,413.5C 159.5,413.167 159.5,412.833 159.5,412.5C 160.167,410.167 160.833,407.833 161.5,405.5 Z"/></g>
<g><path style="opacity:0.31" fill="#54534a" d="M 155.5,407.5 C 156.906,407.973 157.573,408.973 157.5,410.5C 156.833,410.167 156.167,409.833 155.5,409.5C 155.5,408.833 155.5,408.167 155.5,407.5 Z"/></g>
<g><path style="opacity:0.153" fill="#615d51" d="M 227.5,407.5 C 228.906,407.973 229.573,408.973 229.5,410.5C 228.094,410.027 227.427,409.027 227.5,407.5 Z"/></g>
<g><path style="opacity:1" fill="#a9987b" d="M 284.5,409.5 C 281.512,411.14 278.179,411.974 274.5,412C 277.036,412.186 279.369,412.686 281.5,413.5C 281.768,415.099 281.434,416.432 280.5,417.5C 280.67,416.178 280.337,415.011 279.5,414C 277.19,413.503 274.857,413.337 272.5,413.5C 272.5,412.167 272.5,410.833 272.5,409.5C 276.5,409.5 280.5,409.5 284.5,409.5 Z"/></g>
<g><path style="opacity:0.346" fill="#a4967e" d="M 293.5,404.5 C 293.5,412.167 293.5,419.833 293.5,427.5C 295.167,427.5 296.833,427.5 298.5,427.5C 298.5,425.5 298.5,423.5 298.5,421.5C 300.099,421.232 301.432,421.566 302.5,422.5C 300.976,424.408 299.643,426.575 298.5,429C 296.765,429.651 295.098,429.485 293.5,428.5C 292.18,420.343 292.18,412.343 293.5,404.5 Z"/></g>
<g><path style="opacity:1" fill="#f8d591" d="M 161.5,406.5 C 161.833,406.5 162.167,406.5 162.5,406.5C 162.823,410.226 162.489,413.893 161.5,417.5C 160.702,417.043 160.369,416.376 160.5,415.5C 161.477,412.713 161.81,409.713 161.5,406.5 Z"/></g>
<g><path style="opacity:0.424" fill="#9e8f71" d="M 192.5,428.5 C 192.5,428.167 192.5,427.833 192.5,427.5C 194.25,426.527 195.75,425.193 197,423.5C 197.498,420.518 197.665,417.518 197.5,414.5C 194.813,414.336 192.146,414.503 189.5,415C 188.748,415.671 188.414,416.504 188.5,417.5C 187.596,416.791 187.263,415.791 187.5,414.5C 188.901,414.029 190.234,413.362 191.5,412.5C 184.82,410.513 182.487,412.846 184.5,419.5C 181.744,416.24 182.077,413.073 185.5,410C 189.376,409.425 193.042,409.925 196.5,411.5C 196.973,408.167 195.64,406 192.5,405C 189.183,404.502 185.85,404.335 182.5,404.5C 189.451,401.303 195.451,402.803 200.5,409C 199.167,410.333 197.833,411.667 196.5,413C 197.416,413.374 198.25,413.874 199,414.5C 201.386,421.574 199.219,426.24 192.5,428.5 Z"/></g>
<g><path style="opacity:1" fill="#f8a31e" d="M 121.5,404.5 C 121.833,404.5 122.167,404.5 122.5,404.5C 124.621,404.325 126.621,404.659 128.5,405.5C 129.833,405.5 130.5,406.167 130.5,407.5C 132.483,414.144 134.483,420.81 136.5,427.5C 134.833,427.5 133.167,427.5 131.5,427.5C 131.276,423.452 129.109,421.785 125,422.5C 121.507,421.78 119.34,423.113 118.5,426.5C 116.955,427.452 115.288,427.785 113.5,427.5C 116.464,419.912 119.131,412.246 121.5,404.5 Z"/></g>
<g><path style="opacity:0.792" fill="#a4987f" d="M 312.5,408.5 C 314.127,412.792 313.461,416.792 310.5,420.5C 309.662,420.158 309.328,419.492 309.5,418.5C 310.79,417.942 311.623,416.942 312,415.5C 312.497,413.19 312.663,410.857 312.5,408.5 Z"/></g>
<g><path style="opacity:0.882" fill="#e2d291" d="M 91.5,405.5 C 91.5,407.833 91.5,410.167 91.5,412.5C 93.8333,412.5 96.1667,412.5 98.5,412.5C 98.5,409.833 98.5,407.167 98.5,404.5C 98.8333,404.5 99.1667,404.5 99.5,404.5C 99.5,407.5 99.5,410.5 99.5,413.5C 96.5,413.5 93.5,413.5 90.5,413.5C 90.5,410.5 90.5,407.5 90.5,404.5C 89.1667,404.5 87.8333,404.5 86.5,404.5C 86.5,404.167 86.5,403.833 86.5,403.5C 87.6009,402.402 88.9343,402.235 90.5,403C 91.2524,403.671 91.5858,404.504 91.5,405.5 Z"/></g>
<g><path style="opacity:0.433" fill="#69675c" d="M 98.5,404.5 C 98.5,407.167 98.5,409.833 98.5,412.5C 96.1667,412.5 93.8333,412.5 91.5,412.5C 91.5,410.167 91.5,407.833 91.5,405.5C 92.4614,407.265 92.7947,409.265 92.5,411.5C 94.1667,411.5 95.8333,411.5 97.5,411.5C 97.1984,408.941 97.5318,406.607 98.5,404.5 Z"/></g>
<g><path style="opacity:0.999" fill="#bcad7a" d="M 104.5,428.5 C 102.901,428.768 101.568,428.434 100.5,427.5C 101.833,427.5 103.167,427.5 104.5,427.5C 104.666,420.159 104.5,412.826 104,405.5C 102.644,404.62 101.144,404.286 99.5,404.5C 102.048,401.674 104.215,402.007 106,405.5C 106.667,412.5 106.667,419.5 106,426.5C 105.722,427.416 105.222,428.082 104.5,428.5 Z"/></g>
<g><path style="opacity:0.467" fill="#827f6c" d="M 157.5,410.5 C 158.5,410.833 159.167,411.5 159.5,412.5C 159.5,412.833 159.5,413.167 159.5,413.5C 158.094,413.027 157.427,412.027 157.5,410.5 Z"/></g>
<g><path style="opacity:1" fill="#f68c1b" d="M 220.5,404.5 C 222.98,405.242 225.313,406.242 227.5,407.5C 227.427,409.027 228.094,410.027 229.5,410.5C 230.833,414.167 230.833,417.833 229.5,421.5C 221.686,429.821 214.353,429.487 207.5,420.5C 205.346,409.668 209.679,404.335 220.5,404.5 Z M 215.5,411.5 C 221,410.831 223.167,413.165 222,418.5C 218.162,422.365 215.328,421.532 213.5,416C 214.044,414.415 214.711,412.915 215.5,411.5 Z"/></g>
<g><path style="opacity:1" fill="#f99c1d" d="M 182.5,404.5 C 185.85,404.335 189.183,404.502 192.5,405C 195.64,406 196.973,408.167 196.5,411.5C 193.042,409.925 189.376,409.425 185.5,410C 182.077,413.073 181.744,416.24 184.5,419.5C 184.414,420.496 184.748,421.329 185.5,422C 190.199,423.713 192.532,422.213 192.5,417.5C 191.167,417.5 189.833,417.5 188.5,417.5C 188.414,416.504 188.748,415.671 189.5,415C 192.146,414.503 194.813,414.336 197.5,414.5C 197.665,417.518 197.498,420.518 197,423.5C 195.75,425.193 194.25,426.527 192.5,427.5C 189.098,427.658 185.764,427.324 182.5,426.5C 181.486,425.326 180.153,424.66 178.5,424.5C 178.5,424.167 178.5,423.833 178.5,423.5C 176.998,419.658 176.332,415.658 176.5,411.5C 176.5,411.167 176.5,410.833 176.5,410.5C 178.833,408.833 180.833,406.833 182.5,404.5 Z"/></g>
<g><path style="opacity:0.058" fill="#151412" d="M 281.5,413.5 C 282.139,414.097 282.472,414.93 282.5,416C 282.316,417.376 281.649,418.209 280.5,418.5C 280.5,418.167 280.5,417.833 280.5,417.5C 281.434,416.432 281.768,415.099 281.5,413.5 Z"/></g>
<g><path style="opacity:0.408" fill="#c7af8a" d="M 299.5,409.5 C 301.527,409.338 303.527,409.505 305.5,410C 308.033,411.916 308.033,413.916 305.5,416C 303.527,416.495 301.527,416.662 299.5,416.5C 299.5,414.167 299.5,411.833 299.5,409.5 Z M 300.5,410.5 C 300.5,411.833 300.5,413.167 300.5,414.5C 302.167,414.5 303.833,414.5 305.5,414.5C 305.5,413.5 305.5,412.5 305.5,411.5C 303.784,411.371 302.117,411.038 300.5,410.5 Z"/></g>
<g><path style="opacity:0.09" fill="#282723" d="M 187.5,414.5 C 187.263,415.791 187.596,416.791 188.5,417.5C 188.5,417.833 188.5,418.167 188.5,418.5C 187.414,418.38 186.747,417.713 186.5,416.5C 186.543,415.584 186.876,414.917 187.5,414.5 Z"/></g>
<g><path style="opacity:0.757" fill="#b6a583" d="M 215.5,409.5 C 222.314,409.49 224.814,412.823 223,419.5C 219.157,423.729 215.823,423.395 213,418.5C 211.927,414.9 212.76,411.9 215.5,409.5 Z M 215.5,411.5 C 214.711,412.915 214.044,414.415 213.5,416C 215.328,421.532 218.162,422.365 222,418.5C 223.167,413.165 221,410.831 215.5,411.5 Z"/></g>
<g><path style="opacity:1" fill="#f98616" d="M 243.5,406.5 C 243.884,410.604 245.384,414.271 248,417.5C 250.287,414.928 251.453,411.928 251.5,408.5C 252.829,405.52 255.163,404.187 258.5,404.5C 257.833,408.167 257.167,411.833 256.5,415.5C 255.624,415.369 254.957,415.702 254.5,416.5C 253.441,419.618 252.108,422.618 250.5,425.5C 248.926,426.631 247.259,426.798 245.5,426C 241.55,419.275 238.884,412.108 237.5,404.5C 239.858,404.253 241.858,404.919 243.5,406.5 Z"/></g>
<g><path style="opacity:0.855" fill="#ae9a78" d="M 243.5,406.5 C 245.497,409.16 246.997,412.16 248,415.5C 248.67,412.826 249.837,410.493 251.5,408.5C 251.453,411.928 250.287,414.928 248,417.5C 245.384,414.271 243.884,410.604 243.5,406.5 Z"/></g>
<g><path style="opacity:0.616" fill="#8c866b" d="M 86.5,403.5 C 86.5,403.833 86.5,404.167 86.5,404.5C 85.508,411.982 85.1746,419.648 85.5,427.5C 87.1667,427.5 88.8333,427.5 90.5,427.5C 90.8333,427.5 91.1667,427.5 91.5,427.5C 89.9346,429.719 87.9346,430.052 85.5,428.5C 85.1667,424.333 84.8333,420.167 84.5,416C 84.5085,411.443 85.1752,407.276 86.5,403.5 Z"/></g>
<g><path style="opacity:0.82" fill="#a99e7d" d="M 176.5,411.5 C 176.332,415.658 176.998,419.658 178.5,423.5C 177.21,422.942 176.377,421.942 176,420.5C 175.195,417.304 175.362,414.304 176.5,411.5 Z"/></g>
<g><path style="opacity:1" fill="#cab479" d="M 100.5,427.5 C 99.8333,427.5 99.1667,427.5 98.5,427.5C 97.5269,425.052 97.1936,422.385 97.5,419.5C 95.8333,419.5 94.1667,419.5 92.5,419.5C 92.7214,422.279 92.388,424.946 91.5,427.5C 91.1667,427.5 90.8333,427.5 90.5,427.5C 90.5,424.5 90.5,421.5 90.5,418.5C 93.5,418.5 96.5,418.5 99.5,418.5C 99.2641,421.609 99.5975,424.609 100.5,427.5 Z"/></g>
<g><path style="opacity:0.78" fill="#cbb689" d="M 188.5,417.5 C 189.833,417.5 191.167,417.5 192.5,417.5C 192.532,422.213 190.199,423.713 185.5,422C 184.748,421.329 184.414,420.496 184.5,419.5C 186.511,421.387 188.511,421.554 190.5,420C 189.584,419.722 188.918,419.222 188.5,418.5C 188.5,418.167 188.5,417.833 188.5,417.5 Z"/></g>
<g><path style="opacity:0.78" fill="#baa381" d="M 280.5,418.5 C 278.302,419.165 275.969,419.832 273.5,420.5C 277.445,421.491 281.445,421.824 285.5,421.5C 285.795,423.735 285.461,425.735 284.5,427.5C 284.714,425.856 284.38,424.356 283.5,423C 279.848,422.501 276.182,422.335 272.5,422.5C 272.5,421.167 272.5,419.833 272.5,418.5C 275.167,418.5 277.833,418.5 280.5,418.5 Z"/></g>
<g><path style="opacity:1" fill="#e9a461" d="M 309.5,418.5 C 309.328,419.492 309.662,420.158 310.5,420.5C 311.167,420.5 311.5,420.833 311.5,421.5C 311.5,422.167 311.5,422.833 311.5,423.5C 308.8,422.456 308.133,420.79 309.5,418.5 Z"/></g>
<g><path style="opacity:0.694" fill="#91866a" d="M 167.5,427.5 C 166.341,429.377 164.674,429.877 162.5,429C 159.667,425.5 156.833,422 154,418.5C 153.824,421.882 153.324,425.215 152.5,428.5C 150.065,430.052 148.065,429.719 146.5,427.5C 148.735,427.795 150.735,427.461 152.5,426.5C 152.335,422.818 152.501,419.152 153,415.5C 156.639,418.793 159.806,422.46 162.5,426.5C 164.045,427.452 165.712,427.785 167.5,427.5 Z"/></g>
<g><path style="opacity:0.509" fill="#958b6c" d="M 121.5,404.5 C 119.131,412.246 116.464,419.912 113.5,427.5C 115.288,427.785 116.955,427.452 118.5,426.5C 119.34,423.113 121.507,421.78 125,422.5C 129.109,421.785 131.276,423.452 131.5,427.5C 133.167,427.5 134.833,427.5 136.5,427.5C 134.483,420.81 132.483,414.144 130.5,407.5C 133.34,413.327 136.007,419.327 138.5,425.5C 135.65,430.72 132.65,430.72 129.5,425.5C 124.639,423.38 120.973,424.547 118.5,429C 116.833,429.667 115.167,429.667 113.5,429C 112.398,426.599 112.231,424.099 113,421.5C 115.757,415.686 118.59,410.019 121.5,404.5 Z"/></g>
<g><path style="opacity:0.482" fill="#9f977a" d="M 125.5,417.5 C 125.167,414.833 124.833,414.833 124.5,417.5C 123.379,415.911 123.546,414.244 125,412.5C 126.677,414.148 126.844,415.815 125.5,417.5 Z"/></g>
<g><path style="opacity:0.965" fill="#8d7f61" d="M 178.5,424.5 C 180.153,424.66 181.486,425.326 182.5,426.5C 182.833,427.167 183.167,427.833 183.5,428.5C 181.251,427.92 179.585,426.587 178.5,424.5 Z"/></g>
<g><path style="opacity:0.424" fill="#a08e70" d="M 207.5,420.5 C 214.353,429.487 221.686,429.821 229.5,421.5C 226.187,428.56 220.687,430.893 213,428.5C 210.76,427.155 208.926,425.488 207.5,423.5C 207.5,422.5 207.5,421.5 207.5,420.5 Z"/></g>
<g><path style="opacity:1" fill="#968063" d="M 243.5,406.5 C 241.858,404.919 239.858,404.253 237.5,404.5C 238.884,412.108 241.55,419.275 245.5,426C 247.259,426.798 248.926,426.631 250.5,425.5C 252.108,422.618 253.441,419.618 254.5,416.5C 254.957,415.702 255.624,415.369 256.5,415.5C 255.037,419.105 253.537,422.771 252,426.5C 250.412,429.309 248.245,429.975 245.5,428.5C 240.987,421.894 237.653,414.727 235.5,407C 235.703,404.297 237.203,402.797 240,402.5C 242.074,403.072 243.24,404.405 243.5,406.5 Z"/></g>
<g><path style="opacity:1" fill="#b79c6e" d="M 182.5,426.5 C 185.764,427.324 189.098,427.658 192.5,427.5C 192.5,427.833 192.5,428.167 192.5,428.5C 189.604,429.775 186.604,429.775 183.5,428.5C 183.167,427.833 182.833,427.167 182.5,426.5 Z"/></g>
<g><path style="opacity:0.004" fill="#0e0d0b" d="M 266.5,426.5 C 266.833,426.5 267.167,426.5 267.5,426.5C 267.5,427.167 267.833,427.5 268.5,427.5C 268.5,427.833 268.5,428.167 268.5,428.5C 267.167,428.5 266.5,427.833 266.5,426.5 Z"/></g>
<g><path style="opacity:0.894" fill="#9a876c" d="M 311.5,421.5 C 314.795,425.257 314.128,427.923 309.5,429.5C 306.065,428.32 303.732,425.986 302.5,422.5C 304.25,423.742 305.917,425.242 307.5,427C 308.793,427.49 310.127,427.657 311.5,427.5C 311.5,426.167 311.5,424.833 311.5,423.5C 311.5,422.833 311.5,422.167 311.5,421.5 Z"/></g>
<g><path style="opacity:0.369" fill="#747162" d="M 98.5,427.5 C 99.1667,427.5 99.8333,427.5 100.5,427.5C 101.568,428.434 102.901,428.768 104.5,428.5C 103.903,429.139 103.07,429.472 102,429.5C 100.301,429.613 99.1342,428.947 98.5,427.5 Z"/></g>
<g><path style="opacity:0.229" fill="#76705e" d="M 268.5,428.5 C 268.5,428.167 268.5,427.833 268.5,427.5C 273.833,427.5 279.167,427.5 284.5,427.5C 284.389,428.117 284.056,428.617 283.5,429C 278.416,429.778 273.416,429.611 268.5,428.5 Z"/></g>
</svg>
